<svg xmlns="http://www.w3.org/2000/svg" version="1.1" xmlns:xlink="http://www.w3.org/1999/xlink" width="512" height="512" x="0" y="0" viewBox="0 0 24 24" style="enable-background:new 0 0 512 512" xml:space="preserve" class=""><g><path d="M3.5 5.5C1.57 5.5 0 7.07 0 9c0 1.762 2.772 5.827 3.088 6.284a.503.503 0 0 0 .824 0C4.228 14.826 7 10.762 7 9c0-1.93-1.57-3.5-3.5-3.5zm0 4a.5.5 0 1 1 0-1 .5.5 0 0 1 0 1zM12.5 0C10.57 0 9 1.57 9 3.5c0 1.762 2.772 5.827 3.088 6.284a.503.503 0 0 0 .824 0C13.228 9.326 16 5.262 16 3.5 16 1.57 14.43 0 12.5 0zm0 4a.5.5 0 1 1 0-1 .5.5 0 0 1 0 1zM19.5 10a4.505 4.505 0 0 0-4.5 4.5c0 2.279 3.653 8.547 4.069 9.254a.5.5 0 0 0 .862 0C20.348 23.047 24 16.779 24 14.5c0-2.481-2.019-4.5-4.5-4.5zm0 6c-.827 0-1.5-.673-1.5-1.5s.673-1.5 1.5-1.5 1.5.673 1.5 1.5-.673 1.5-1.5 1.5z" fill="#ffffff" opacity="1" data-original="#000000"></path><path d="M19.5 24a.495.495 0 0 1-.234-.059l-16-8.5a.5.5 0 0 1-.027-.868l9-5.5a.5.5 0 1 1 .522.854L4.509 14.97l15.226 8.089A.5.5 0 0 1 19.5 24z" fill="#ffffff" opacity="1" data-original="#000000"></path></g></svg>