<svg width="1324" height="236" viewBox="0 0 1324 236" fill="none" xmlns="http://www.w3.org/2000/svg">
<path d="M134.969 70C134.969 31.3401 166.309 0 204.969 0H262V91.5234C262 130.183 230.66 161.523 192 161.523H134.969V70Z" fill="#C4AC69"/>
<path d="M134.969 168.523H190.778C207.347 168.523 220.778 181.955 220.778 198.523V235.825H164.969C148.4 235.825 134.969 222.393 134.969 205.825V168.523Z" fill="#76673F"/>
<path d="M0 30.0977H57.0315C95.6914 30.0977 127.031 61.4377 127.031 100.098V191.621H70C31.3401 191.621 0 160.281 0 121.621V30.0977Z" fill="#9D8A54"/>
<path d="M310 38.8H339V158H408.2V186H310V38.8ZM429.525 98.6H457.525V186H429.525V98.6ZM428.925 67.6C428.925 63.4667 430.525 60.0667 433.725 57.4C437.058 54.7333 440.592 53.4 444.325 53.4C448.058 53.4 451.458 54.7333 454.525 57.4C457.725 60.0667 459.325 63.4667 459.325 67.6C459.325 71.7333 457.725 75.1333 454.525 77.8C451.458 80.3333 448.058 81.6 444.325 81.6C440.592 81.6 437.058 80.3333 433.725 77.8C430.525 75.1333 428.925 71.7333 428.925 67.6ZM482.361 28.2H510.361V186H482.361V28.2ZM535.197 28.2H563.197V186H535.197V28.2ZM595.033 228L653.233 98.6H678.433L622.033 228H595.033ZM618.433 186.4L575.633 98.6H607.033L640.033 172.4L618.433 186.4Z" fill="white"/>
<path d="M853 186C851.133 186 848.333 186 844.6 186C841 186 837.267 186 833.4 186C829.533 186 826.2 186 823.4 186C820.733 186 819.4 186 819.4 186L754.6 98.8C753.267 96.9333 751.6 94.4 749.6 91.2C747.6 87.8667 745.867 84.2 744.4 80.2C742.933 76.0667 742.2 71.9333 742.2 67.8C742.2 62.4667 743.533 57.2 746.2 52C749 46.6667 753.2 42.2667 758.8 38.8C764.533 35.2 771.733 33.4 780.4 33.4C789.867 33.4 798.2 35.3333 805.4 39.2C812.6 43.0667 818.333 47.7333 822.6 53.2L808 72.6C803.867 68.0667 799.867 64.4667 796 61.8C792.267 59.1333 788.6 57.8 785 57.8C780.467 57.8 777.2 59.1333 775.2 61.8C773.2 64.4667 772.2 67.4 772.2 70.6C772.2 72.4667 772.667 74.5333 773.6 76.8C774.667 78.9333 775.733 80.9333 776.8 82.8C777.867 84.5333 778.6 85.7333 779 86.4L853 186ZM772 119C768.8 119 765.8 119.667 763 121C760.2 122.2 757.733 123.867 755.6 126C753.467 128.133 751.8 130.533 750.6 133.2C749.533 135.867 749 138.667 749 141.6C749 145.733 750 149.4 752 152.6C754.133 155.667 757 158.067 760.6 159.8C764.2 161.533 768.133 162.4 772.4 162.4C776.8 162.4 780.4 161.8 783.2 160.6C786.133 159.267 788.533 157.533 790.4 155.4C792.4 153.267 794 150.933 795.2 148.4L813.8 163.8C810.2 170.6 804.667 176.4 797.2 181.2C789.867 186 780.267 188.4 768.4 188.4C759.2 188.4 750.867 186.467 743.4 182.6C735.933 178.733 730 173.4 725.6 166.6C721.2 159.8 719 152 719 143.2C719 136.533 720.467 130.4 723.4 124.8C726.467 119.2 730.533 114.333 735.6 110.2C740.667 106.067 746.333 102.8 752.6 100.4C758.867 97.8667 765.267 96.5333 771.8 96.4L772 119ZM815.6 96.4H842L817.2 158.8L796.2 146.4L815.6 96.4Z" fill="white"/>
<path d="M951.6 38.8C960.8 38.8 969 40 976.2 42.4C983.4 44.6667 989.4 48 994.2 52.4C999.133 56.6667 1002.87 61.8667 1005.4 68C1007.93 74 1009.2 80.8 1009.2 88.4C1009.2 94.4 1008.27 100.4 1006.4 106.4C1004.67 112.4 1001.73 117.867 997.6 122.8C993.6 127.733 988.267 131.733 981.6 134.8C974.933 137.733 966.667 139.2 956.8 139.2H936V186H907V38.8H951.6ZM956.6 111.2C961 111.2 964.667 110.467 967.6 109C970.533 107.533 972.8 105.667 974.4 103.4C976.133 101.133 977.333 98.8 978 96.4C978.8 93.8667 979.2 91.5333 979.2 89.4C979.2 87.8 978.933 85.8 978.4 83.4C978 80.8667 977.067 78.3333 975.6 75.8C974.133 73.2667 971.867 71.1333 968.8 69.4C965.867 67.6667 961.867 66.8 956.8 66.8H936V111.2H956.6ZM983.8 129.2L1020.2 186H986.4L949.2 130L983.8 129.2ZM1024.8 141.2C1024.8 132.267 1026.87 124.267 1031 117.2C1035.27 110.133 1041.2 104.6 1048.8 100.6C1056.4 96.4667 1065.14 94.4 1075 94.4C1085 94.4 1093.67 96.4667 1101 100.6C1108.34 104.6 1113.94 110.133 1117.8 117.2C1121.8 124.267 1123.8 132.267 1123.8 141.2C1123.8 150.133 1121.8 158.2 1117.8 165.4C1113.94 172.467 1108.34 178.067 1101 182.2C1093.67 186.333 1084.87 188.4 1074.6 188.4C1065 188.4 1056.4 186.533 1048.8 182.8C1041.34 179.067 1035.47 173.667 1031.2 166.6C1026.94 159.533 1024.8 151.067 1024.8 141.2ZM1053 141.4C1053 145.933 1053.94 150.067 1055.8 153.8C1057.67 157.4 1060.2 160.267 1063.4 162.4C1066.6 164.533 1070.2 165.6 1074.2 165.6C1078.6 165.6 1082.4 164.533 1085.6 162.4C1088.8 160.267 1091.27 157.4 1093 153.8C1094.74 150.067 1095.6 145.933 1095.6 141.4C1095.6 136.733 1094.74 132.6 1093 129C1091.27 125.4 1088.8 122.533 1085.6 120.4C1082.4 118.267 1078.6 117.2 1074.2 117.2C1070.2 117.2 1066.6 118.267 1063.4 120.4C1060.2 122.533 1057.67 125.4 1055.8 129C1053.94 132.6 1053 136.733 1053 141.4ZM1170.26 187.8C1163.06 187.8 1156.33 186.533 1150.06 184C1143.93 181.467 1138.73 177.933 1134.46 173.4L1146.06 158C1150.33 161.867 1154.26 164.667 1157.86 166.4C1161.59 168 1164.93 168.8 1167.86 168.8C1170.13 168.8 1172.13 168.6 1173.86 168.2C1175.73 167.667 1177.19 166.933 1178.26 166C1179.33 164.933 1179.86 163.6 1179.86 162C1179.86 159.733 1178.93 157.933 1177.06 156.6C1175.33 155.267 1173.06 154.2 1170.26 153.4C1167.46 152.467 1164.46 151.533 1161.26 150.6C1153.26 148.067 1147.46 144.4 1143.86 139.6C1140.39 134.667 1138.66 129.333 1138.66 123.6C1138.66 119.2 1139.79 114.8 1142.06 110.4C1144.46 105.867 1148.19 102.133 1153.26 99.2C1158.46 96.1333 1165.13 94.6 1173.26 94.6C1180.59 94.6 1186.79 95.3333 1191.86 96.8C1196.93 98.2667 1201.73 100.667 1206.26 104L1195.66 120.4C1193.13 118.4 1190.26 116.733 1187.06 115.4C1183.99 113.933 1181.13 113.133 1178.46 113C1176.06 112.867 1173.99 113.133 1172.26 113.8C1170.66 114.467 1169.39 115.333 1168.46 116.4C1167.53 117.467 1167.06 118.6 1167.06 119.8C1166.93 122.333 1167.86 124.333 1169.86 125.8C1171.99 127.267 1174.66 128.4 1177.86 129.2C1181.06 130 1184.19 130.933 1187.26 132C1191.53 133.333 1195.19 135.133 1198.26 137.4C1201.33 139.667 1203.66 142.4 1205.26 145.6C1206.99 148.667 1207.86 152.4 1207.86 156.8C1207.86 162.133 1206.46 167.2 1203.66 172C1200.99 176.667 1196.86 180.467 1191.26 183.4C1185.79 186.333 1178.79 187.8 1170.26 187.8ZM1270.31 188.4C1259.65 188.4 1250.58 186.4 1243.11 182.4C1235.78 178.4 1230.18 172.867 1226.31 165.8C1222.45 158.733 1220.51 150.6 1220.51 141.4C1220.51 132.6 1222.78 124.667 1227.31 117.6C1231.85 110.533 1237.91 104.933 1245.51 100.8C1253.11 96.5333 1261.58 94.4 1270.91 94.4C1283.45 94.4 1293.71 98.0667 1301.71 105.4C1309.85 112.6 1315.11 123.067 1317.51 136.8L1249.51 158.4L1243.31 143.2L1292.51 126.6L1286.71 129.2C1285.65 125.733 1283.71 122.733 1280.91 120.2C1278.25 117.533 1274.18 116.2 1268.71 116.2C1264.58 116.2 1260.91 117.2 1257.71 119.2C1254.65 121.067 1252.25 123.8 1250.51 127.4C1248.91 130.867 1248.11 135 1248.11 139.8C1248.11 145.267 1249.11 149.867 1251.11 153.6C1253.11 157.2 1255.85 159.933 1259.31 161.8C1262.78 163.667 1266.65 164.6 1270.91 164.6C1273.98 164.6 1276.91 164.067 1279.71 163C1282.65 161.933 1285.51 160.533 1288.31 158.8L1300.71 179.6C1296.05 182.267 1290.98 184.4 1285.51 186C1280.18 187.6 1275.11 188.4 1270.31 188.4Z" fill="white"/>
</svg>
