<svg width="544" height="408" viewBox="0 0 544 408" fill="none" xmlns="http://www.w3.org/2000/svg">
<path d="M30.212 364.63H18.538V397H12.48V364.63H0.78V359.56H30.212V364.63ZM39.5155 373.626C40.6075 372.551 41.8035 371.693 43.1035 371.052C44.4035 370.393 45.9202 370.064 47.6535 370.064C49.1095 370.064 50.3835 370.307 51.4755 370.792C52.5849 371.277 53.5122 371.962 54.2575 372.846C55.0202 373.73 55.5922 374.796 55.9735 376.044C56.3549 377.275 56.5455 378.635 56.5455 380.126V397H50.9815V380.126C50.9815 378.341 50.5655 376.954 49.7335 375.966C48.9189 374.978 47.6709 374.484 45.9895 374.484C44.7415 374.484 43.5802 374.77 42.5055 375.342C41.4482 375.914 40.4515 376.694 39.5155 377.682V397H33.9255V358.52H39.5155V373.626ZM77.244 385.404C75.2506 385.473 73.5693 385.638 72.2 385.898C70.8306 386.141 69.7213 386.461 68.872 386.86C68.0226 387.241 67.4073 387.701 67.026 388.238C66.662 388.775 66.48 389.365 66.48 390.006C66.48 390.63 66.5753 391.167 66.766 391.618C66.974 392.051 67.2513 392.415 67.598 392.71C67.962 392.987 68.378 393.195 68.846 393.334C69.3313 393.455 69.86 393.516 70.432 393.516C71.888 393.516 73.136 393.247 74.176 392.71C75.2333 392.155 76.256 391.358 77.244 390.318V385.404ZM62.424 374.172C65.4226 371.381 68.9933 369.986 73.136 369.986C74.6613 369.986 76.0133 370.237 77.192 370.74C78.388 371.225 79.3846 371.919 80.182 372.82C80.9966 373.721 81.612 374.796 82.028 376.044C82.4613 377.275 82.678 378.644 82.678 380.152V397H80.182C79.6446 397 79.2373 396.922 78.96 396.766C78.6826 396.593 78.4486 396.255 78.258 395.752L77.712 393.594C77.036 394.201 76.3686 394.747 75.71 395.232C75.0513 395.7 74.3666 396.099 73.656 396.428C72.9626 396.757 72.2086 397 71.394 397.156C70.5966 397.329 69.7126 397.416 68.742 397.416C67.6673 397.416 66.662 397.269 65.726 396.974C64.8073 396.679 64.01 396.237 63.334 395.648C62.658 395.041 62.1206 394.296 61.722 393.412C61.3406 392.528 61.15 391.488 61.15 390.292C61.15 389.269 61.4186 388.273 61.956 387.302C62.5106 386.331 63.412 385.465 64.66 384.702C65.9253 383.922 67.5806 383.281 69.626 382.778C71.6886 382.275 74.228 381.989 77.244 381.92V380.152C77.244 378.245 76.8366 376.824 76.022 375.888C75.2073 374.952 74.0113 374.484 72.434 374.484C71.3593 374.484 70.458 374.623 69.73 374.9C69.002 375.16 68.3693 375.446 67.832 375.758C67.2946 376.07 66.818 376.365 66.402 376.642C65.986 376.902 65.544 377.032 65.076 377.032C64.6946 377.032 64.3653 376.937 64.088 376.746C63.828 376.538 63.6113 376.287 63.438 375.992L62.424 374.172ZM95.0503 370.48V397H89.4603V370.48H95.0503ZM95.9863 362.472C95.9863 362.975 95.8823 363.451 95.6743 363.902C95.4836 364.353 95.215 364.751 94.8683 365.098C94.5216 365.427 94.1143 365.696 93.6463 365.904C93.1956 366.095 92.7103 366.19 92.1903 366.19C91.6876 366.19 91.211 366.095 90.7603 365.904C90.327 365.696 89.9456 365.427 89.6163 365.098C89.287 364.751 89.0183 364.353 88.8103 363.902C88.6196 363.451 88.5243 362.975 88.5243 362.472C88.5243 361.952 88.6196 361.467 88.8103 361.016C89.0183 360.565 89.287 360.175 89.6163 359.846C89.9456 359.499 90.327 359.231 90.7603 359.04C91.211 358.832 91.6876 358.728 92.1903 358.728C92.7103 358.728 93.1956 358.832 93.6463 359.04C94.1143 359.231 94.5216 359.499 94.8683 359.846C95.215 360.175 95.4836 360.565 95.6743 361.016C95.8823 361.467 95.9863 361.952 95.9863 362.472ZM155.895 359.56V397H150.539V371.338C150.539 370.922 150.548 370.471 150.565 369.986C150.6 369.483 150.643 368.981 150.695 368.478L138.657 390.708C138.189 391.627 137.47 392.086 136.499 392.086H135.641C134.653 392.086 133.934 391.627 133.483 390.708L121.263 368.426C121.315 368.929 121.35 369.431 121.367 369.934C121.402 370.437 121.419 370.905 121.419 371.338V397H116.063V359.56H120.613C121.151 359.56 121.567 359.612 121.861 359.716C122.156 359.803 122.425 360.089 122.667 360.574L134.679 382.336C134.939 382.839 135.182 383.359 135.407 383.896C135.65 384.416 135.867 384.953 136.057 385.508C136.265 384.953 136.482 384.407 136.707 383.87C136.95 383.315 137.201 382.787 137.461 382.284L149.291 360.574C149.534 360.089 149.803 359.803 150.097 359.716C150.392 359.612 150.808 359.56 151.345 359.56H155.895ZM177.181 385.404C175.188 385.473 173.507 385.638 172.137 385.898C170.768 386.141 169.659 386.461 168.809 386.86C167.96 387.241 167.345 387.701 166.963 388.238C166.599 388.775 166.417 389.365 166.417 390.006C166.417 390.63 166.513 391.167 166.703 391.618C166.911 392.051 167.189 392.415 167.535 392.71C167.899 392.987 168.315 393.195 168.783 393.334C169.269 393.455 169.797 393.516 170.369 393.516C171.825 393.516 173.073 393.247 174.113 392.71C175.171 392.155 176.193 391.358 177.181 390.318V385.404ZM162.361 374.172C165.36 371.381 168.931 369.986 173.073 369.986C174.599 369.986 175.951 370.237 177.129 370.74C178.325 371.225 179.322 371.919 180.119 372.82C180.934 373.721 181.549 374.796 181.965 376.044C182.399 377.275 182.615 378.644 182.615 380.152V397H180.119C179.582 397 179.175 396.922 178.897 396.766C178.62 396.593 178.386 396.255 178.195 395.752L177.649 393.594C176.973 394.201 176.306 394.747 175.647 395.232C174.989 395.7 174.304 396.099 173.593 396.428C172.9 396.757 172.146 397 171.331 397.156C170.534 397.329 169.65 397.416 168.679 397.416C167.605 397.416 166.599 397.269 165.663 396.974C164.745 396.679 163.947 396.237 163.271 395.648C162.595 395.041 162.058 394.296 161.659 393.412C161.278 392.528 161.087 391.488 161.087 390.292C161.087 389.269 161.356 388.273 161.893 387.302C162.448 386.331 163.349 385.465 164.597 384.702C165.863 383.922 167.518 383.281 169.563 382.778C171.626 382.275 174.165 381.989 177.181 381.92V380.152C177.181 378.245 176.774 376.824 175.959 375.888C175.145 374.952 173.949 374.484 172.371 374.484C171.297 374.484 170.395 374.623 169.667 374.9C168.939 375.16 168.307 375.446 167.769 375.758C167.232 376.07 166.755 376.365 166.339 376.642C165.923 376.902 165.481 377.032 165.013 377.032C164.632 377.032 164.303 376.937 164.025 376.746C163.765 376.538 163.549 376.287 163.375 375.992L162.361 374.172ZM204.998 375.29C204.859 375.533 204.703 375.706 204.53 375.81C204.356 375.914 204.14 375.966 203.88 375.966C203.585 375.966 203.264 375.879 202.918 375.706C202.571 375.515 202.164 375.307 201.696 375.082C201.228 374.857 200.673 374.657 200.032 374.484C199.408 374.293 198.671 374.198 197.822 374.198C197.128 374.198 196.496 374.285 195.924 374.458C195.369 374.614 194.892 374.848 194.494 375.16C194.112 375.455 193.818 375.81 193.61 376.226C193.402 376.625 193.298 377.058 193.298 377.526C193.298 378.15 193.488 378.67 193.87 379.086C194.251 379.502 194.754 379.866 195.378 380.178C196.002 380.473 196.712 380.741 197.51 380.984C198.307 381.227 199.122 381.487 199.954 381.764C200.786 382.041 201.6 382.362 202.398 382.726C203.195 383.09 203.906 383.541 204.53 384.078C205.154 384.598 205.656 385.239 206.038 386.002C206.419 386.747 206.61 387.657 206.61 388.732C206.61 389.98 206.384 391.133 205.934 392.19C205.483 393.247 204.824 394.166 203.958 394.946C203.091 395.726 202.008 396.333 200.708 396.766C199.425 397.199 197.952 397.416 196.288 397.416C195.369 397.416 194.476 397.329 193.61 397.156C192.76 397 191.946 396.783 191.166 396.506C190.403 396.211 189.684 395.865 189.008 395.466C188.349 395.067 187.76 394.634 187.24 394.166L188.54 392.034C188.696 391.774 188.886 391.575 189.112 391.436C189.354 391.28 189.649 391.202 189.996 391.202C190.36 391.202 190.715 391.323 191.062 391.566C191.426 391.791 191.842 392.043 192.31 392.32C192.795 392.597 193.376 392.857 194.052 393.1C194.728 393.325 195.568 393.438 196.574 393.438C197.406 393.438 198.125 393.343 198.732 393.152C199.338 392.944 199.841 392.667 200.24 392.32C200.638 391.973 200.933 391.583 201.124 391.15C201.314 390.699 201.41 390.223 201.41 389.72C201.41 389.044 201.219 388.489 200.838 388.056C200.456 387.623 199.945 387.25 199.304 386.938C198.68 386.626 197.96 386.349 197.146 386.106C196.348 385.863 195.534 385.603 194.702 385.326C193.87 385.049 193.046 384.728 192.232 384.364C191.434 384 190.715 383.541 190.074 382.986C189.45 382.414 188.947 381.729 188.566 380.932C188.184 380.117 187.994 379.129 187.994 377.968C187.994 376.911 188.202 375.905 188.618 374.952C189.051 373.999 189.675 373.158 190.49 372.43C191.322 371.702 192.336 371.13 193.532 370.714C194.745 370.281 196.14 370.064 197.718 370.064C199.503 370.064 201.124 370.35 202.58 370.922C204.036 371.494 205.258 372.274 206.246 373.262L204.998 375.29ZM227.697 375.29C227.558 375.533 227.402 375.706 227.229 375.81C227.056 375.914 226.839 375.966 226.579 375.966C226.284 375.966 225.964 375.879 225.617 375.706C225.27 375.515 224.863 375.307 224.395 375.082C223.927 374.857 223.372 374.657 222.731 374.484C222.107 374.293 221.37 374.198 220.521 374.198C219.828 374.198 219.195 374.285 218.623 374.458C218.068 374.614 217.592 374.848 217.193 375.16C216.812 375.455 216.517 375.81 216.309 376.226C216.101 376.625 215.997 377.058 215.997 377.526C215.997 378.15 216.188 378.67 216.569 379.086C216.95 379.502 217.453 379.866 218.077 380.178C218.701 380.473 219.412 380.741 220.209 380.984C221.006 381.227 221.821 381.487 222.653 381.764C223.485 382.041 224.3 382.362 225.097 382.726C225.894 383.09 226.605 383.541 227.229 384.078C227.853 384.598 228.356 385.239 228.737 386.002C229.118 386.747 229.309 387.657 229.309 388.732C229.309 389.98 229.084 391.133 228.633 392.19C228.182 393.247 227.524 394.166 226.657 394.946C225.79 395.726 224.707 396.333 223.407 396.766C222.124 397.199 220.651 397.416 218.987 397.416C218.068 397.416 217.176 397.329 216.309 397.156C215.46 397 214.645 396.783 213.865 396.506C213.102 396.211 212.383 395.865 211.707 395.466C211.048 395.067 210.459 394.634 209.939 394.166L211.239 392.034C211.395 391.774 211.586 391.575 211.811 391.436C212.054 391.28 212.348 391.202 212.695 391.202C213.059 391.202 213.414 391.323 213.761 391.566C214.125 391.791 214.541 392.043 215.009 392.32C215.494 392.597 216.075 392.857 216.751 393.1C217.427 393.325 218.268 393.438 219.273 393.438C220.105 393.438 220.824 393.343 221.431 393.152C222.038 392.944 222.54 392.667 222.939 392.32C223.338 391.973 223.632 391.583 223.823 391.15C224.014 390.699 224.109 390.223 224.109 389.72C224.109 389.044 223.918 388.489 223.537 388.056C223.156 387.623 222.644 387.25 222.003 386.938C221.379 386.626 220.66 386.349 219.845 386.106C219.048 385.863 218.233 385.603 217.401 385.326C216.569 385.049 215.746 384.728 214.931 384.364C214.134 384 213.414 383.541 212.773 382.986C212.149 382.414 211.646 381.729 211.265 380.932C210.884 380.117 210.693 379.129 210.693 377.968C210.693 376.911 210.901 375.905 211.317 374.952C211.75 373.999 212.374 373.158 213.189 372.43C214.021 371.702 215.035 371.13 216.231 370.714C217.444 370.281 218.84 370.064 220.417 370.064C222.202 370.064 223.823 370.35 225.279 370.922C226.735 371.494 227.957 372.274 228.945 373.262L227.697 375.29ZM248.732 385.404C246.739 385.473 245.058 385.638 243.688 385.898C242.319 386.141 241.21 386.461 240.36 386.86C239.511 387.241 238.896 387.701 238.514 388.238C238.15 388.775 237.968 389.365 237.968 390.006C237.968 390.63 238.064 391.167 238.254 391.618C238.462 392.051 238.74 392.415 239.086 392.71C239.45 392.987 239.866 393.195 240.334 393.334C240.82 393.455 241.348 393.516 241.92 393.516C243.376 393.516 244.624 393.247 245.664 392.71C246.722 392.155 247.744 391.358 248.732 390.318V385.404ZM233.912 374.172C236.911 371.381 240.482 369.986 244.624 369.986C246.15 369.986 247.502 370.237 248.68 370.74C249.876 371.225 250.873 371.919 251.67 372.82C252.485 373.721 253.1 374.796 253.516 376.044C253.95 377.275 254.166 378.644 254.166 380.152V397H251.67C251.133 397 250.726 396.922 250.448 396.766C250.171 396.593 249.937 396.255 249.746 395.752L249.2 393.594C248.524 394.201 247.857 394.747 247.198 395.232C246.54 395.7 245.855 396.099 245.144 396.428C244.451 396.757 243.697 397 242.882 397.156C242.085 397.329 241.201 397.416 240.23 397.416C239.156 397.416 238.15 397.269 237.214 396.974C236.296 396.679 235.498 396.237 234.822 395.648C234.146 395.041 233.609 394.296 233.21 393.412C232.829 392.528 232.638 391.488 232.638 390.292C232.638 389.269 232.907 388.273 233.444 387.302C233.999 386.331 234.9 385.465 236.148 384.702C237.414 383.922 239.069 383.281 241.114 382.778C243.177 382.275 245.716 381.989 248.732 381.92V380.152C248.732 378.245 248.325 376.824 247.51 375.888C246.696 374.952 245.5 374.484 243.922 374.484C242.848 374.484 241.946 374.623 241.218 374.9C240.49 375.16 239.858 375.446 239.32 375.758C238.783 376.07 238.306 376.365 237.89 376.642C237.474 376.902 237.032 377.032 236.564 377.032C236.183 377.032 235.854 376.937 235.576 376.746C235.316 376.538 235.1 376.287 234.926 375.992L233.912 374.172ZM270.179 383.506C271.912 383.506 273.212 383.064 274.079 382.18C274.945 381.296 275.379 380.143 275.379 378.722C275.379 377.266 274.945 376.113 274.079 375.264C273.212 374.415 271.912 373.99 270.179 373.99C268.463 373.99 267.163 374.415 266.279 375.264C265.412 376.113 264.979 377.266 264.979 378.722C264.979 379.415 265.091 380.057 265.317 380.646C265.542 381.235 265.871 381.747 266.305 382.18C266.738 382.596 267.275 382.925 267.917 383.168C268.575 383.393 269.329 383.506 270.179 383.506ZM277.953 398.3C277.953 397.711 277.779 397.243 277.433 396.896C277.103 396.532 276.653 396.255 276.081 396.064C275.509 395.856 274.841 395.709 274.079 395.622C273.316 395.518 272.501 395.449 271.635 395.414C270.785 395.362 269.91 395.319 269.009 395.284C268.125 395.232 267.267 395.145 266.435 395.024C265.603 395.457 264.918 395.977 264.381 396.584C263.861 397.191 263.601 397.893 263.601 398.69C263.601 399.21 263.731 399.695 263.991 400.146C264.268 400.597 264.684 400.987 265.239 401.316C265.811 401.645 266.53 401.905 267.397 402.096C268.281 402.287 269.338 402.382 270.569 402.382C273.03 402.382 274.876 402.001 276.107 401.238C277.337 400.475 277.953 399.496 277.953 398.3ZM283.569 371.442V373.522C283.569 374.215 283.153 374.64 282.321 374.796L279.669 375.238C280.119 376.243 280.345 377.361 280.345 378.592C280.345 379.892 280.085 381.071 279.565 382.128C279.062 383.185 278.36 384.087 277.459 384.832C276.557 385.577 275.483 386.149 274.235 386.548C272.987 386.947 271.635 387.146 270.179 387.146C269.624 387.146 269.078 387.12 268.541 387.068C268.021 386.999 267.509 386.912 267.007 386.808C266.504 387.103 266.131 387.415 265.889 387.744C265.646 388.073 265.525 388.411 265.525 388.758C265.525 389.33 265.776 389.755 266.279 390.032C266.781 390.309 267.44 390.509 268.255 390.63C269.087 390.751 270.031 390.829 271.089 390.864C272.146 390.899 273.221 390.959 274.313 391.046C275.405 391.133 276.479 391.28 277.537 391.488C278.594 391.679 279.53 392.008 280.345 392.476C281.177 392.927 281.844 393.542 282.347 394.322C282.849 395.102 283.101 396.116 283.101 397.364C283.101 398.508 282.815 399.626 282.243 400.718C281.671 401.81 280.839 402.781 279.747 403.63C278.672 404.479 277.355 405.155 275.795 405.658C274.235 406.178 272.458 406.438 270.465 406.438C268.489 406.438 266.764 406.247 265.291 405.866C263.835 405.485 262.613 404.965 261.625 404.306C260.654 403.665 259.926 402.919 259.441 402.07C258.973 401.221 258.739 400.337 258.739 399.418C258.739 398.17 259.129 397.104 259.909 396.22C260.706 395.336 261.781 394.643 263.133 394.14C262.405 393.793 261.815 393.317 261.365 392.71C260.931 392.103 260.715 391.306 260.715 390.318C260.715 389.538 261.001 388.723 261.573 387.874C262.145 387.025 263.003 386.305 264.147 385.716C262.829 384.988 261.789 384.026 261.027 382.83C260.264 381.617 259.883 380.204 259.883 378.592C259.883 377.275 260.134 376.087 260.637 375.03C261.157 373.973 261.876 373.071 262.795 372.326C263.713 371.581 264.797 371.009 266.045 370.61C267.31 370.211 268.688 370.012 270.179 370.012C272.467 370.012 274.46 370.489 276.159 371.442H283.569ZM304.921 380.75C304.921 379.814 304.782 378.947 304.505 378.15C304.245 377.335 303.855 376.633 303.335 376.044C302.815 375.437 302.165 374.969 301.385 374.64C300.622 374.293 299.738 374.12 298.733 374.12C296.705 374.12 295.11 374.701 293.949 375.862C292.788 377.023 292.051 378.653 291.739 380.75H304.921ZM291.583 384.182C291.652 385.69 291.886 386.999 292.285 388.108C292.684 389.2 293.212 390.11 293.871 390.838C294.547 391.566 295.344 392.112 296.263 392.476C297.199 392.823 298.239 392.996 299.383 392.996C300.475 392.996 301.42 392.875 302.217 392.632C303.014 392.372 303.708 392.095 304.297 391.8C304.886 391.488 305.389 391.211 305.805 390.968C306.221 390.708 306.602 390.578 306.949 390.578C307.4 390.578 307.746 390.751 307.989 391.098L309.575 393.152C308.916 393.932 308.171 394.591 307.339 395.128C306.507 395.665 305.623 396.107 304.687 396.454C303.751 396.783 302.789 397.017 301.801 397.156C300.813 397.312 299.851 397.39 298.915 397.39C297.078 397.39 295.37 397.087 293.793 396.48C292.233 395.856 290.872 394.946 289.711 393.75C288.567 392.554 287.666 391.072 287.007 389.304C286.366 387.536 286.045 385.499 286.045 383.194C286.045 381.357 286.331 379.641 286.903 378.046C287.492 376.451 288.324 375.065 289.399 373.886C290.491 372.707 291.808 371.78 293.351 371.104C294.911 370.411 296.67 370.064 298.629 370.064C300.258 370.064 301.766 370.333 303.153 370.87C304.54 371.39 305.736 372.161 306.741 373.184C307.746 374.207 308.526 375.463 309.081 376.954C309.653 378.427 309.939 380.109 309.939 381.998C309.939 382.865 309.844 383.445 309.653 383.74C309.462 384.035 309.116 384.182 308.613 384.182H291.583ZM337.149 379.06C335.555 379.996 334.376 381.088 333.613 382.336C332.851 383.584 332.469 384.936 332.469 386.392C332.469 387.415 332.651 388.333 333.015 389.148C333.397 389.945 333.891 390.621 334.497 391.176C335.121 391.731 335.832 392.155 336.629 392.45C337.444 392.745 338.285 392.892 339.151 392.892C340.867 392.892 342.427 392.606 343.831 392.034C345.235 391.445 346.483 390.656 347.575 389.668L337.149 379.06ZM361.745 397H356.311C356.017 397 355.748 396.983 355.505 396.948C355.28 396.913 355.063 396.861 354.855 396.792C354.665 396.705 354.474 396.593 354.283 396.454C354.11 396.315 353.919 396.133 353.711 395.908L350.591 392.736C348.945 394.192 347.073 395.336 344.975 396.168C342.895 397 340.633 397.416 338.189 397.416C336.768 397.416 335.373 397.173 334.003 396.688C332.651 396.203 331.438 395.509 330.363 394.608C329.289 393.689 328.422 392.58 327.763 391.28C327.105 389.963 326.775 388.481 326.775 386.834C326.775 385.638 326.966 384.511 327.347 383.454C327.746 382.397 328.292 381.417 328.985 380.516C329.696 379.597 330.528 378.774 331.481 378.046C332.435 377.318 333.483 376.694 334.627 376.174C333.639 374.857 332.92 373.574 332.469 372.326C332.019 371.078 331.793 369.813 331.793 368.53C331.793 367.247 332.027 366.034 332.495 364.89C332.963 363.746 333.639 362.749 334.523 361.9C335.425 361.051 336.508 360.383 337.773 359.898C339.056 359.395 340.503 359.144 342.115 359.144C343.571 359.144 344.88 359.369 346.041 359.82C347.22 360.271 348.225 360.877 349.057 361.64C349.907 362.403 350.565 363.278 351.033 364.266C351.519 365.254 351.805 366.277 351.891 367.334L348.355 368.062C348.043 368.131 347.749 368.088 347.471 367.932C347.211 367.776 347.012 367.516 346.873 367.152C346.735 366.701 346.535 366.259 346.275 365.826C346.015 365.375 345.695 364.977 345.313 364.63C344.932 364.283 344.473 364.006 343.935 363.798C343.415 363.573 342.809 363.46 342.115 363.46C341.318 363.46 340.599 363.59 339.957 363.85C339.333 364.11 338.796 364.474 338.345 364.942C337.912 365.393 337.574 365.921 337.331 366.528C337.106 367.135 336.993 367.785 336.993 368.478C336.993 369.033 337.054 369.57 337.175 370.09C337.297 370.61 337.496 371.13 337.773 371.65C338.051 372.17 338.397 372.707 338.813 373.262C339.247 373.799 339.767 374.38 340.373 375.004L350.695 385.638C351.319 384.494 351.813 383.307 352.177 382.076C352.541 380.828 352.784 379.571 352.905 378.306C352.94 377.942 353.061 377.656 353.269 377.448C353.477 377.223 353.755 377.11 354.101 377.11H357.559C357.542 379.277 357.213 381.365 356.571 383.376C355.947 385.369 355.063 387.224 353.919 388.94L361.745 397ZM390.283 377.5C391.669 377.5 392.883 377.335 393.923 377.006C394.963 376.659 395.829 376.183 396.523 375.576C397.216 374.969 397.736 374.25 398.083 373.418C398.429 372.569 398.603 371.633 398.603 370.61C398.603 368.565 397.927 367.005 396.575 365.93C395.223 364.855 393.177 364.318 390.439 364.318H385.499V377.5H390.283ZM407.911 397H402.477C401.402 397 400.622 396.584 400.137 395.752L391.401 383.142C391.106 382.709 390.785 382.397 390.439 382.206C390.092 382.015 389.572 381.92 388.879 381.92H385.499V397H379.415V359.56H390.439C392.9 359.56 395.015 359.811 396.783 360.314C398.568 360.817 400.033 361.536 401.177 362.472C402.321 363.391 403.161 364.5 403.699 365.8C404.253 367.1 404.531 368.547 404.531 370.142C404.531 371.442 404.331 372.655 403.933 373.782C403.551 374.909 402.988 375.931 402.243 376.85C401.515 377.769 400.613 378.566 399.539 379.242C398.464 379.918 397.242 380.447 395.873 380.828C396.618 381.279 397.259 381.911 397.797 382.726L407.911 397ZM427.05 380.75C427.05 379.814 426.911 378.947 426.634 378.15C426.374 377.335 425.984 376.633 425.464 376.044C424.944 375.437 424.294 374.969 423.514 374.64C422.751 374.293 421.867 374.12 420.862 374.12C418.834 374.12 417.239 374.701 416.078 375.862C414.917 377.023 414.18 378.653 413.868 380.75H427.05ZM413.712 384.182C413.781 385.69 414.015 386.999 414.414 388.108C414.813 389.2 415.341 390.11 416 390.838C416.676 391.566 417.473 392.112 418.392 392.476C419.328 392.823 420.368 392.996 421.512 392.996C422.604 392.996 423.549 392.875 424.346 392.632C425.143 392.372 425.837 392.095 426.426 391.8C427.015 391.488 427.518 391.211 427.934 390.968C428.35 390.708 428.731 390.578 429.078 390.578C429.529 390.578 429.875 390.751 430.118 391.098L431.704 393.152C431.045 393.932 430.3 394.591 429.468 395.128C428.636 395.665 427.752 396.107 426.816 396.454C425.88 396.783 424.918 397.017 423.93 397.156C422.942 397.312 421.98 397.39 421.044 397.39C419.207 397.39 417.499 397.087 415.922 396.48C414.362 395.856 413.001 394.946 411.84 393.75C410.696 392.554 409.795 391.072 409.136 389.304C408.495 387.536 408.174 385.499 408.174 383.194C408.174 381.357 408.46 379.641 409.032 378.046C409.621 376.451 410.453 375.065 411.528 373.886C412.62 372.707 413.937 371.78 415.48 371.104C417.04 370.411 418.799 370.064 420.758 370.064C422.387 370.064 423.895 370.333 425.282 370.87C426.669 371.39 427.865 372.161 428.87 373.184C429.875 374.207 430.655 375.463 431.21 376.954C431.782 378.427 432.068 380.109 432.068 381.998C432.068 382.865 431.973 383.445 431.782 383.74C431.591 384.035 431.245 384.182 430.742 384.182H413.712ZM445.529 397.416C443.328 397.416 441.629 396.801 440.433 395.57C439.254 394.322 438.665 392.571 438.665 390.318V374.874H435.753C435.441 374.874 435.172 374.779 434.947 374.588C434.722 374.38 434.609 374.077 434.609 373.678V371.416L438.899 370.792L440.121 363.122C440.208 362.827 440.355 362.593 440.563 362.42C440.771 362.229 441.048 362.134 441.395 362.134H444.255V370.844H451.613V374.874H444.255V389.928C444.255 390.881 444.489 391.609 444.957 392.112C445.425 392.615 446.049 392.866 446.829 392.866C447.262 392.866 447.635 392.814 447.947 392.71C448.259 392.589 448.528 392.467 448.753 392.346C448.978 392.207 449.169 392.086 449.325 391.982C449.498 391.861 449.663 391.8 449.819 391.8C450.131 391.8 450.382 391.973 450.573 392.32L452.237 395.05C451.37 395.813 450.348 396.402 449.169 396.818C447.99 397.217 446.777 397.416 445.529 397.416ZM461.297 375.394C462.129 373.713 463.135 372.395 464.313 371.442C465.492 370.471 466.905 369.986 468.551 369.986C469.123 369.986 469.661 370.055 470.163 370.194C470.666 370.315 471.117 370.506 471.515 370.766L471.125 374.978C471.056 375.273 470.943 375.481 470.787 375.602C470.649 375.706 470.458 375.758 470.215 375.758C469.955 375.758 469.583 375.715 469.097 375.628C468.612 375.524 468.101 375.472 467.563 375.472C466.783 375.472 466.09 375.585 465.483 375.81C464.894 376.035 464.357 376.365 463.871 376.798C463.403 377.231 462.987 377.76 462.623 378.384C462.259 379.008 461.921 379.719 461.609 380.516V397H456.019V370.48H459.269C459.859 370.48 460.266 370.593 460.491 370.818C460.717 371.026 460.873 371.399 460.959 371.936L461.297 375.394ZM491.695 380.75C491.695 379.814 491.556 378.947 491.279 378.15C491.019 377.335 490.629 376.633 490.109 376.044C489.589 375.437 488.939 374.969 488.159 374.64C487.396 374.293 486.512 374.12 485.507 374.12C483.479 374.12 481.884 374.701 480.723 375.862C479.561 377.023 478.825 378.653 478.513 380.75H491.695ZM478.357 384.182C478.426 385.69 478.66 386.999 479.059 388.108C479.457 389.2 479.986 390.11 480.645 390.838C481.321 391.566 482.118 392.112 483.037 392.476C483.973 392.823 485.013 392.996 486.157 392.996C487.249 392.996 488.193 392.875 488.991 392.632C489.788 392.372 490.481 392.095 491.071 391.8C491.66 391.488 492.163 391.211 492.579 390.968C492.995 390.708 493.376 390.578 493.723 390.578C494.173 390.578 494.52 390.751 494.763 391.098L496.349 393.152C495.69 393.932 494.945 394.591 494.113 395.128C493.281 395.665 492.397 396.107 491.461 396.454C490.525 396.783 489.563 397.017 488.575 397.156C487.587 397.312 486.625 397.39 485.689 397.39C483.851 397.39 482.144 397.087 480.567 396.48C479.007 395.856 477.646 394.946 476.485 393.75C475.341 392.554 474.439 391.072 473.781 389.304C473.139 387.536 472.819 385.499 472.819 383.194C472.819 381.357 473.105 379.641 473.677 378.046C474.266 376.451 475.098 375.065 476.173 373.886C477.265 372.707 478.582 371.78 480.125 371.104C481.685 370.411 483.444 370.064 485.403 370.064C487.032 370.064 488.54 370.333 489.927 370.87C491.313 371.39 492.509 372.161 493.515 373.184C494.52 374.207 495.3 375.463 495.855 376.954C496.427 378.427 496.713 380.109 496.713 381.998C496.713 382.865 496.617 383.445 496.427 383.74C496.236 384.035 495.889 384.182 495.387 384.182H478.357ZM516.096 385.404C514.102 385.473 512.421 385.638 511.052 385.898C509.682 386.141 508.573 386.461 507.724 386.86C506.874 387.241 506.259 387.701 505.878 388.238C505.514 388.775 505.332 389.365 505.332 390.006C505.332 390.63 505.427 391.167 505.618 391.618C505.826 392.051 506.103 392.415 506.45 392.71C506.814 392.987 507.23 393.195 507.698 393.334C508.183 393.455 508.712 393.516 509.284 393.516C510.74 393.516 511.988 393.247 513.028 392.71C514.085 392.155 515.108 391.358 516.096 390.318V385.404ZM501.276 374.172C504.274 371.381 507.845 369.986 511.988 369.986C513.513 369.986 514.865 370.237 516.044 370.74C517.24 371.225 518.236 371.919 519.034 372.82C519.848 373.721 520.464 374.796 520.88 376.044C521.313 377.275 521.53 378.644 521.53 380.152V397H519.034C518.496 397 518.089 396.922 517.812 396.766C517.534 396.593 517.3 396.255 517.11 395.752L516.564 393.594C515.888 394.201 515.22 394.747 514.562 395.232C513.903 395.7 513.218 396.099 512.508 396.428C511.814 396.757 511.06 397 510.246 397.156C509.448 397.329 508.564 397.416 507.594 397.416C506.519 397.416 505.514 397.269 504.578 396.974C503.659 396.679 502.862 396.237 502.186 395.648C501.51 395.041 500.972 394.296 500.574 393.412C500.192 392.528 500.002 391.488 500.002 390.292C500.002 389.269 500.27 388.273 500.808 387.302C501.362 386.331 502.264 385.465 503.512 384.702C504.777 383.922 506.432 383.281 508.478 382.778C510.54 382.275 513.08 381.989 516.096 381.92V380.152C516.096 378.245 515.688 376.824 514.874 375.888C514.059 374.952 512.863 374.484 511.286 374.484C510.211 374.484 509.31 374.623 508.582 374.9C507.854 375.16 507.221 375.446 506.684 375.758C506.146 376.07 505.67 376.365 505.254 376.642C504.838 376.902 504.396 377.032 503.928 377.032C503.546 377.032 503.217 376.937 502.94 376.746C502.68 376.538 502.463 376.287 502.29 375.992L501.276 374.172ZM536.224 397.416C534.023 397.416 532.324 396.801 531.128 395.57C529.95 394.322 529.36 392.571 529.36 390.318V374.874H526.448C526.136 374.874 525.868 374.779 525.642 374.588C525.417 374.38 525.304 374.077 525.304 373.678V371.416L529.594 370.792L530.816 363.122C530.903 362.827 531.05 362.593 531.258 362.42C531.466 362.229 531.744 362.134 532.09 362.134H534.95V370.844H542.308V374.874H534.95V389.928C534.95 390.881 535.184 391.609 535.652 392.112C536.12 392.615 536.744 392.866 537.524 392.866C537.958 392.866 538.33 392.814 538.642 392.71C538.954 392.589 539.223 392.467 539.448 392.346C539.674 392.207 539.864 392.086 540.02 391.982C540.194 391.861 540.358 391.8 540.514 391.8C540.826 391.8 541.078 391.973 541.268 392.32L542.932 395.05C542.066 395.813 541.043 396.402 539.864 396.818C538.686 397.217 537.472 397.416 536.224 397.416Z" fill="white"/>
<path d="M279.969 70C279.969 31.3401 311.309 0 349.969 0H407V91.5234C407 130.183 375.66 161.523 337 161.523H279.969V70Z" fill="#C4AC69"/>
<path d="M279.969 168.523H335.778C352.347 168.523 365.778 181.955 365.778 198.523V235.825H309.969C293.4 235.825 279.969 222.393 279.969 205.825V168.523Z" fill="#76673F"/>
<path d="M145 30.0977H202.031C240.691 30.0977 272.031 61.4377 272.031 100.098V191.621H215C176.34 191.621 145 160.281 145 121.621V30.0977Z" fill="#9D8A54"/>
<path d="M39.55 264.76H52.6V318.4H83.74V331H39.55V264.76ZM93.3363 291.67H105.936V331H93.3363V291.67ZM93.0663 277.72C93.0663 275.86 93.7863 274.33 95.2263 273.13C96.7263 271.93 98.3163 271.33 99.9963 271.33C101.676 271.33 103.206 271.93 104.586 273.13C106.026 274.33 106.746 275.86 106.746 277.72C106.746 279.58 106.026 281.11 104.586 282.31C103.206 283.45 101.676 284.02 99.9963 284.02C98.3163 284.02 96.7263 283.45 95.2263 282.31C93.7863 281.11 93.0663 279.58 93.0663 277.72ZM117.112 259.99H129.712V331H117.112V259.99ZM140.889 259.99H153.489V331H140.889V259.99ZM167.815 349.9L194.005 291.67H205.345L179.965 349.9H167.815ZM178.345 331.18L159.085 291.67H173.215L188.065 324.88L178.345 331.18ZM296.279 331C295.439 331 294.179 331 292.499 331C290.879 331 289.199 331 287.459 331C285.719 331 284.219 331 282.959 331C281.759 331 281.159 331 281.159 331L251.999 291.76C251.399 290.92 250.649 289.78 249.749 288.34C248.849 286.84 248.069 285.19 247.409 283.39C246.749 281.53 246.419 279.67 246.419 277.81C246.419 275.41 247.019 273.04 248.219 270.7C249.479 268.3 251.369 266.32 253.889 264.76C256.469 263.14 259.709 262.33 263.609 262.33C267.869 262.33 271.619 263.2 274.859 264.94C278.099 266.68 280.679 268.78 282.599 271.24L276.029 279.97C274.169 277.93 272.369 276.31 270.629 275.11C268.949 273.91 267.299 273.31 265.679 273.31C263.639 273.31 262.169 273.91 261.269 275.11C260.369 276.31 259.919 277.63 259.919 279.07C259.919 279.91 260.129 280.84 260.549 281.86C261.029 282.82 261.509 283.72 261.989 284.56C262.469 285.34 262.799 285.88 262.979 286.18L296.279 331ZM259.829 300.85C258.389 300.85 257.039 301.15 255.779 301.75C254.519 302.29 253.409 303.04 252.449 304C251.489 304.96 250.739 306.04 250.199 307.24C249.719 308.44 249.479 309.7 249.479 311.02C249.479 312.88 249.929 314.53 250.829 315.97C251.789 317.35 253.079 318.43 254.699 319.21C256.319 319.99 258.089 320.38 260.009 320.38C261.989 320.38 263.609 320.11 264.869 319.57C266.189 318.97 267.269 318.19 268.109 317.23C269.009 316.27 269.729 315.22 270.269 314.08L278.639 321.01C277.019 324.07 274.529 326.68 271.169 328.84C267.869 331 263.549 332.08 258.209 332.08C254.069 332.08 250.319 331.21 246.959 329.47C243.599 327.73 240.929 325.33 238.949 322.27C236.969 319.21 235.979 315.7 235.979 311.74C235.979 308.74 236.639 305.98 237.959 303.46C239.339 300.94 241.169 298.75 243.449 296.89C245.729 295.03 248.279 293.56 251.099 292.48C253.919 291.34 256.799 290.74 259.739 290.68L259.829 300.85ZM279.449 290.68H291.329L280.169 318.76L270.719 313.18L279.449 290.68ZM352.837 264.76C356.977 264.76 360.667 265.3 363.907 266.38C367.147 267.4 369.847 268.9 372.007 270.88C374.227 272.8 375.907 275.14 377.047 277.9C378.187 280.6 378.757 283.66 378.757 287.08C378.757 289.78 378.337 292.48 377.497 295.18C376.717 297.88 375.397 300.34 373.537 302.56C371.737 304.78 369.337 306.58 366.337 307.96C363.337 309.28 359.617 309.94 355.177 309.94H345.817V331H332.767V264.76H352.837ZM355.087 297.34C357.067 297.34 358.717 297.01 360.037 296.35C361.357 295.69 362.377 294.85 363.097 293.83C363.877 292.81 364.417 291.76 364.717 290.68C365.077 289.54 365.257 288.49 365.257 287.53C365.257 286.81 365.137 285.91 364.897 284.83C364.717 283.69 364.297 282.55 363.637 281.41C362.977 280.27 361.957 279.31 360.577 278.53C359.257 277.75 357.457 277.36 355.177 277.36H345.817V297.34H355.087ZM367.327 305.44L383.707 331H368.497L351.757 305.8L367.327 305.44ZM385.779 310.84C385.779 306.82 386.709 303.22 388.569 300.04C390.489 296.86 393.159 294.37 396.579 292.57C399.999 290.71 403.929 289.78 408.369 289.78C412.869 289.78 416.769 290.71 420.069 292.57C423.369 294.37 425.889 296.86 427.629 300.04C429.429 303.22 430.329 306.82 430.329 310.84C430.329 314.86 429.429 318.49 427.629 321.73C425.889 324.91 423.369 327.43 420.069 329.29C416.769 331.15 412.809 332.08 408.189 332.08C403.869 332.08 399.999 331.24 396.579 329.56C393.219 327.88 390.579 325.45 388.659 322.27C386.739 319.09 385.779 315.28 385.779 310.84ZM398.469 310.93C398.469 312.97 398.889 314.83 399.729 316.51C400.569 318.13 401.709 319.42 403.149 320.38C404.589 321.34 406.209 321.82 408.009 321.82C409.989 321.82 411.699 321.34 413.139 320.38C414.579 319.42 415.689 318.13 416.469 316.51C417.249 314.83 417.639 312.97 417.639 310.93C417.639 308.83 417.249 306.97 416.469 305.35C415.689 303.73 414.579 302.44 413.139 301.48C411.699 300.52 409.989 300.04 408.009 300.04C406.209 300.04 404.589 300.52 403.149 301.48C401.709 302.44 400.569 303.73 399.729 305.35C398.889 306.97 398.469 308.83 398.469 310.93ZM451.235 331.81C447.995 331.81 444.965 331.24 442.145 330.1C439.385 328.96 437.045 327.37 435.125 325.33L440.345 318.4C442.265 320.14 444.035 321.4 445.655 322.18C447.335 322.9 448.835 323.26 450.155 323.26C451.175 323.26 452.075 323.17 452.855 322.99C453.695 322.75 454.355 322.42 454.835 322C455.315 321.52 455.555 320.92 455.555 320.2C455.555 319.18 455.135 318.37 454.295 317.77C453.515 317.17 452.495 316.69 451.235 316.33C449.975 315.91 448.625 315.49 447.185 315.07C443.585 313.93 440.975 312.28 439.355 310.12C437.795 307.9 437.015 305.5 437.015 302.92C437.015 300.94 437.525 298.96 438.545 296.98C439.625 294.94 441.305 293.26 443.585 291.94C445.925 290.56 448.925 289.87 452.585 289.87C455.885 289.87 458.675 290.2 460.955 290.86C463.235 291.52 465.395 292.6 467.435 294.1L462.665 301.48C461.525 300.58 460.235 299.83 458.795 299.23C457.415 298.57 456.125 298.21 454.925 298.15C453.845 298.09 452.915 298.21 452.135 298.51C451.415 298.81 450.845 299.2 450.425 299.68C450.005 300.16 449.795 300.67 449.795 301.21C449.735 302.35 450.155 303.25 451.055 303.91C452.015 304.57 453.215 305.08 454.655 305.44C456.095 305.8 457.505 306.22 458.885 306.7C460.805 307.3 462.455 308.11 463.835 309.13C465.215 310.15 466.265 311.38 466.985 312.82C467.765 314.2 468.155 315.88 468.155 317.86C468.155 320.26 467.525 322.54 466.265 324.7C465.065 326.8 463.205 328.51 460.685 329.83C458.225 331.15 455.075 331.81 451.235 331.81ZM496.259 332.08C491.459 332.08 487.379 331.18 484.019 329.38C480.719 327.58 478.199 325.09 476.459 321.91C474.719 318.73 473.849 315.07 473.849 310.93C473.849 306.97 474.869 303.4 476.909 300.22C478.949 297.04 481.679 294.52 485.099 292.66C488.519 290.74 492.329 289.78 496.529 289.78C502.169 289.78 506.789 291.43 510.389 294.73C514.049 297.97 516.419 302.68 517.499 308.86L486.899 318.58L484.109 311.74L506.249 304.27L503.639 305.44C503.159 303.88 502.289 302.53 501.029 301.39C499.829 300.19 497.999 299.59 495.539 299.59C493.679 299.59 492.029 300.04 490.589 300.94C489.209 301.78 488.129 303.01 487.349 304.63C486.629 306.19 486.269 308.05 486.269 310.21C486.269 312.67 486.719 314.74 487.619 316.42C488.519 318.04 489.749 319.27 491.309 320.11C492.869 320.95 494.609 321.37 496.529 321.37C497.909 321.37 499.229 321.13 500.489 320.65C501.809 320.17 503.099 319.54 504.359 318.76L509.939 328.12C507.839 329.32 505.559 330.28 503.099 331C500.699 331.72 498.419 332.08 496.259 332.08Z" fill="white"/>
</svg>
