<svg width="148" height="27" viewBox="0 0 148 27" fill="none" xmlns="http://www.w3.org/2000/svg">
<g clip-path="url(#clip0_282_106)">
<path d="M115.706 8.86914C115.886 8.86914 115.999 8.89581 116.046 8.94914C116.899 10.1092 117.916 11.0192 119.096 11.6792C122.366 13.4992 123.976 16.6392 121.386 19.6792C118.879 22.6392 117.072 24.9492 115.966 26.6092C115.949 26.6346 115.931 26.6556 115.914 26.6697C115.896 26.6839 115.879 26.6906 115.866 26.6892C115.846 26.6958 115.819 26.6992 115.786 26.6992C115.759 26.6992 115.736 26.6958 115.716 26.6892C115.702 26.6905 115.686 26.6837 115.668 26.6695C115.65 26.6554 115.632 26.6345 115.616 26.6092C114.502 24.9558 112.686 22.6558 110.166 19.7092C107.566 16.6792 109.156 13.5292 112.416 11.6892C113.596 11.0292 114.612 10.1192 115.466 8.95914C115.506 8.89914 115.586 8.86914 115.706 8.86914ZM115.616 9.78914C115.449 9.78914 115.349 9.81581 115.316 9.86914C114.562 10.9025 113.666 11.7158 112.626 12.3092C109.736 13.9592 108.346 16.7692 110.666 19.4392C112.919 22.0392 114.546 24.0725 115.546 25.5392C115.56 25.5602 115.575 25.5777 115.591 25.5899C115.607 25.6022 115.622 25.6088 115.636 25.6092C115.656 25.6158 115.682 25.6192 115.716 25.6192C115.736 25.6192 115.756 25.6158 115.776 25.6092C115.79 25.6073 115.805 25.5989 115.821 25.5848C115.837 25.5707 115.852 25.5515 115.866 25.5292C116.839 24.0492 118.429 21.9925 120.636 19.3592C122.906 16.6392 121.466 13.8592 118.556 12.2592C117.502 11.6858 116.592 10.8858 115.826 9.85914C115.786 9.80581 115.716 9.78247 115.616 9.78914Z" fill="white"/>
<path d="M77.6261 26.7096C77.6061 26.7096 77.5828 26.7062 77.5561 26.6996C77.5426 26.7009 77.526 26.6942 77.5083 26.68C77.4907 26.6659 77.4726 26.645 77.4561 26.6196C76.3428 24.9596 74.5261 22.6529 72.0061 19.6996C69.4061 16.6596 71.0061 13.5096 74.2761 11.6696C75.4561 11.0096 76.4728 10.0962 77.3261 8.92961C77.3728 8.87628 77.4528 8.84961 77.5661 8.84961C77.7528 8.84961 77.8661 8.87628 77.9061 8.92961C78.7661 10.0962 79.7861 11.0062 80.9661 11.6596C84.2361 13.4996 85.8461 16.6496 83.2461 19.6896C80.7328 22.6496 78.9195 24.9596 77.8061 26.6196C77.7916 26.642 77.7759 26.6611 77.7602 26.675C77.7445 26.689 77.7293 26.6974 77.7161 26.6996C77.6895 26.7062 77.6595 26.7096 77.6261 26.7096ZM77.5561 10.1096C77.4228 10.1096 77.3395 10.1262 77.3061 10.1596C74.4361 12.9496 68.6461 14.6196 73.0161 19.8396C74.2628 21.3329 75.7061 23.0596 77.3461 25.0196C77.4261 25.1129 77.5328 25.1596 77.6661 25.1596C77.7795 25.1596 77.8761 25.1096 77.9561 25.0096C79.5761 23.0429 81.0028 21.3062 82.2361 19.7996C86.5561 14.5396 80.7561 12.9196 77.8561 10.1596C77.8228 10.1196 77.7228 10.1029 77.5561 10.1096Z" fill="white"/>
<path d="M38.5718 8.85938C38.7584 8.85938 38.8718 8.88938 38.9118 8.94938C39.7651 10.1094 40.7784 11.0227 41.9518 11.6894C45.2218 13.5394 46.8118 16.6894 44.2018 19.7294C41.6751 22.676 39.8518 24.976 38.7318 26.6294C38.7153 26.6547 38.6972 26.6755 38.6796 26.6896C38.6619 26.7038 38.6454 26.7106 38.6318 26.7094C38.6051 26.716 38.5784 26.7194 38.5518 26.7194C38.5251 26.7194 38.4984 26.716 38.4718 26.7094C38.4586 26.7073 38.4434 26.6989 38.4277 26.6849C38.412 26.671 38.3962 26.6519 38.3818 26.6294C37.2751 24.9627 35.4684 22.646 32.9618 19.6794C30.3718 16.6294 31.9918 13.4894 35.2718 11.6594C36.4518 11.006 37.4718 10.0994 38.3318 8.93937C38.3784 8.88604 38.4584 8.85938 38.5718 8.85938ZM38.6018 10.1094C38.4351 10.1094 38.3351 10.1294 38.3018 10.1694C35.4118 12.9394 29.6118 14.5794 33.9518 19.8294C35.1918 21.3294 36.6251 23.0627 38.2518 25.0294C38.3318 25.1227 38.4284 25.1727 38.5418 25.1794C38.6818 25.1794 38.7918 25.1294 38.8718 25.0294C40.4984 23.0627 41.9351 21.3327 43.1818 19.8394C47.5318 14.5994 41.7318 12.9494 38.8518 10.1694C38.8184 10.136 38.7351 10.116 38.6018 10.1094Z" fill="white"/>
<path d="M96.5766 22.6992C96.5299 22.6992 96.4899 22.6958 96.4566 22.6892C96.4284 22.6775 96.3979 22.6555 96.367 22.6246C96.336 22.5937 96.3053 22.5544 96.2766 22.5092C91.4966 15.0892 84.7466 9.93916 76.8766 5.95916C76.8378 5.93957 76.8044 5.91097 76.779 5.87564C76.7535 5.84031 76.7367 5.7992 76.7299 5.75556C76.7232 5.71192 76.7265 5.66695 76.7398 5.62419C76.7531 5.58143 76.776 5.54205 76.8066 5.50916L77.0066 5.30916C77.0255 5.28911 77.0507 5.27618 77.078 5.27254C77.1053 5.26889 77.1331 5.27476 77.1566 5.28916C84.4266 9.09916 91.5766 14.0392 96.2266 21.0092C96.2999 21.1292 96.4166 21.1892 96.5766 21.1892C96.7366 21.1892 96.8532 21.1292 96.9266 21.0092C101.577 14.0392 108.737 9.10916 116.007 5.29916C116.03 5.28476 116.058 5.27889 116.085 5.28254C116.112 5.28618 116.138 5.29911 116.157 5.31916L116.357 5.51916C116.387 5.55205 116.41 5.59143 116.423 5.63419C116.437 5.67695 116.44 5.72192 116.433 5.76556C116.426 5.80919 116.41 5.8503 116.384 5.88564C116.359 5.92097 116.325 5.94956 116.287 5.96916C108.407 9.94916 101.657 15.0892 96.8766 22.5092C96.8479 22.5544 96.8171 22.5937 96.7862 22.6246C96.7552 22.6555 96.7248 22.6775 96.6966 22.6892C96.6566 22.6958 96.6166 22.6992 96.5766 22.6992Z" fill="white"/>
<path d="M39.3912 5.03967C39.4232 5.02524 39.4595 5.02342 39.4929 5.03453C39.5262 5.04565 39.5542 5.06889 39.5712 5.09967L39.8412 5.55967C39.8457 5.56563 39.8485 5.57265 39.8493 5.58019C39.8502 5.58774 39.8492 5.59562 39.8463 5.60329C39.8435 5.61095 39.8388 5.6182 39.8327 5.6245C39.8267 5.63079 39.8193 5.63597 39.8112 5.63967C32.2978 9.56633 26.6345 13.7097 22.8212 18.0697C22.5212 18.4163 21.5312 19.863 19.8512 22.4097C19.8082 22.4729 19.7521 22.5262 19.6866 22.5657C19.6211 22.6053 19.5479 22.6302 19.4719 22.6387C19.3959 22.6473 19.3189 22.6393 19.2463 22.6153C19.1737 22.5913 19.1071 22.5518 19.0512 22.4997C18.6712 22.1497 18.4312 21.1997 17.9812 20.6197C13.4145 14.7663 7.74116 10.1263 0.961163 6.69967C0.594496 6.51301 0.284503 6.21633 0.0311702 5.80967C0.00815315 5.77342 -0.00259524 5.73072 0.000530462 5.6879C0.00365616 5.64507 0.020483 5.60439 0.0485194 5.57187C0.0765558 5.53935 0.114319 5.51671 0.156216 5.50731C0.198113 5.49791 0.241926 5.50224 0.28117 5.51967C8.16784 9.39968 14.4912 14.5963 19.2512 21.1097C19.2907 21.1634 19.3431 21.2063 19.4035 21.2346C19.4639 21.2629 19.5305 21.2756 19.597 21.2717C19.6636 21.2677 19.7282 21.2471 19.7848 21.2118C19.8414 21.1766 19.8883 21.1277 19.9212 21.0697C23.6512 14.2897 32.5012 8.39967 39.3912 5.03967Z" fill="white"/>
<path d="M131.532 15.68C131.359 15.78 131.169 16.0167 130.962 16.39C130.903 16.501 130.811 16.5913 130.699 16.6489C130.587 16.7064 130.46 16.7285 130.335 16.7122C130.21 16.696 130.093 16.6421 130 16.5577C129.907 16.4734 129.841 16.3626 129.812 16.24C129.232 13.86 129.849 12.2334 131.662 11.36C131.807 11.2922 131.971 11.2803 132.123 11.3266C132.275 11.3728 132.403 11.474 132.482 11.61L134.082 14.39C134.107 14.4341 134.142 14.4719 134.184 14.5002C134.226 14.5286 134.274 14.5469 134.325 14.5537C134.375 14.5605 134.426 14.5555 134.474 14.5393C134.522 14.523 134.566 14.4959 134.602 14.46L137.542 11.53C137.616 11.4564 137.714 11.4117 137.817 11.4043C137.92 11.3969 138.021 11.4274 138.102 11.49C139.729 12.7834 140.145 14.59 139.352 16.91C139.327 16.9828 139.28 17.0461 139.218 17.0916C139.155 17.1371 139.081 17.1626 139.004 17.1648C138.927 17.1669 138.851 17.1456 138.786 17.1037C138.722 17.0618 138.671 17.0012 138.642 16.93C138.382 16.27 138.015 15.78 137.542 15.46C137.493 15.4264 137.434 15.4094 137.375 15.4113C137.315 15.4133 137.258 15.4342 137.211 15.471C137.164 15.5078 137.13 15.5586 137.114 15.616C137.098 15.6733 137.101 15.7343 137.122 15.79C138.282 19.17 136.112 18.96 135.212 21.13C135.188 21.1859 135.152 21.2355 135.105 21.2752C135.059 21.3148 135.005 21.3435 134.946 21.3589C134.887 21.3743 134.826 21.3761 134.766 21.3642C134.706 21.3523 134.65 21.3269 134.602 21.29C132.549 19.7567 131.712 18.0234 132.092 16.09C132.104 16.0177 132.096 15.9433 132.068 15.8753C132.041 15.8072 131.995 15.7484 131.936 15.7056C131.878 15.6627 131.809 15.6376 131.737 15.6331C131.666 15.6285 131.595 15.6448 131.532 15.68Z" fill="white"/>
<path d="M58.1904 21.5298C58.1237 21.5298 58.057 21.5098 57.9904 21.4698C57.1304 20.9632 56.4037 20.0865 55.8104 18.8398C55.3637 17.8998 55.2904 16.9398 55.5904 15.9598C55.6106 15.8992 55.6095 15.8336 55.5872 15.7737C55.565 15.7138 55.523 15.6633 55.4681 15.6306C55.4132 15.598 55.3488 15.585 55.2856 15.594C55.2223 15.6029 55.164 15.6332 55.1204 15.6798L53.9904 16.8098C53.9524 16.8466 53.9062 16.8738 53.8556 16.889C53.8049 16.9042 53.7514 16.907 53.6995 16.8972C53.6475 16.8874 53.5987 16.8653 53.5571 16.8327C53.5155 16.8001 53.4823 16.7579 53.4604 16.7098C52.7737 15.1165 52.9937 13.5165 54.1204 11.9098C54.2247 11.7644 54.3616 11.6453 54.5199 11.5621C54.6783 11.479 54.8537 11.4341 55.0319 11.4312C55.2101 11.4283 55.3861 11.4674 55.5457 11.5453C55.7052 11.6233 55.8439 11.7379 55.9504 11.8798L57.9604 14.5398C57.9924 14.572 58.0383 14.5932 58.0904 14.5998C58.117 14.5998 58.1404 14.5998 58.1604 14.5998C58.187 14.5998 58.2137 14.5998 58.2404 14.5998C58.2924 14.5931 58.3382 14.572 58.3704 14.5398L60.3504 11.8598C60.4561 11.7173 60.5941 11.602 60.7533 11.5232C60.9124 11.4444 61.0882 11.4044 61.2664 11.4063C61.4446 11.4083 61.6202 11.4522 61.7789 11.5344C61.9377 11.6167 62.0753 11.735 62.1804 11.8798C63.3204 13.4732 63.5537 15.0698 62.8804 16.6698C62.858 16.7162 62.8251 16.7566 62.7844 16.788C62.7436 16.8194 62.696 16.8407 62.6455 16.8505C62.595 16.8602 62.5429 16.8579 62.4934 16.8439C62.4439 16.8299 62.3983 16.8046 62.3604 16.7698L61.2204 15.6498C61.1768 15.6 61.1169 15.5673 61.0514 15.5574C60.9859 15.5476 60.9191 15.5612 60.8627 15.596C60.8063 15.6308 60.7641 15.6844 60.7436 15.7473C60.723 15.8103 60.7254 15.8785 60.7504 15.9398C61.057 16.9132 60.9904 17.8732 60.5504 18.8198C59.9704 20.0732 59.2537 20.9565 58.4004 21.4698C58.3337 21.5098 58.2637 21.5298 58.1904 21.5298Z" fill="white"/>
<path d="M134.627 13.2292C134.601 13.2292 134.571 13.2292 134.537 13.2292C134.493 13.2204 134.454 13.2094 134.425 13.1971C134.395 13.1848 134.375 13.1718 134.367 13.1592C132.057 10.5192 129.507 7.82915 132.477 4.59915C132.579 4.48834 132.706 4.40465 132.848 4.35573C132.99 4.30681 133.142 4.2942 133.29 4.31905C133.438 4.3439 133.578 4.40542 133.696 4.49801C133.814 4.5906 133.908 4.71132 133.967 4.84915C134.234 5.44915 134.457 5.74915 134.637 5.74915C134.844 5.74915 135.081 5.44915 135.347 4.84915C135.408 4.71204 135.502 4.59226 135.621 4.5007C135.739 4.40914 135.879 4.34869 136.027 4.32485C136.175 4.301 136.327 4.31452 136.468 4.36417C136.61 4.41382 136.737 4.49803 136.837 4.60915C139.807 7.83915 137.247 10.5292 134.927 13.1592C134.92 13.1718 134.9 13.1849 134.87 13.1971C134.84 13.2094 134.801 13.2204 134.757 13.2292C134.724 13.2292 134.681 13.2292 134.627 13.2292Z" fill="white"/>
<path d="M58.1119 5.76059C58.3252 5.76726 58.5686 5.47059 58.8419 4.87059C58.9036 4.7342 58.9983 4.61535 59.1175 4.52481C59.2367 4.43426 59.3767 4.37489 59.5246 4.35205C59.6725 4.32921 59.8238 4.34364 59.9648 4.39402C60.1058 4.4444 60.2319 4.52915 60.3319 4.64059C63.2619 7.91059 60.6819 10.5706 58.3319 13.1806C58.3194 13.192 58.2976 13.2034 58.2681 13.2138C58.2386 13.2242 58.2022 13.2334 58.1619 13.2406C58.1286 13.2473 58.0852 13.2506 58.0319 13.2506C58.0052 13.2506 57.9752 13.2473 57.9419 13.2406C57.8987 13.2316 57.8605 13.2205 57.8308 13.2083C57.8011 13.1961 57.7808 13.1831 57.7719 13.1706C55.4919 10.5106 52.9619 7.79059 55.9719 4.59059C56.0742 4.48233 56.2017 4.40113 56.3431 4.35428C56.4844 4.30744 56.6352 4.2964 56.7819 4.32217C56.9286 4.34794 57.0666 4.4097 57.1835 4.50193C57.3004 4.59415 57.3926 4.71395 57.4519 4.85059C57.7119 5.45726 57.9319 5.76059 58.1119 5.76059Z" fill="white"/>
<path d="M147.158 9.74978C145.568 11.7998 141.418 13.8597 139.338 11.5197C138.331 10.3864 138.355 9.18645 139.408 7.91978C139.577 7.71655 139.811 7.57913 140.07 7.53048C140.329 7.48183 140.597 7.52489 140.83 7.65248C141.063 7.78006 141.246 7.98444 141.35 8.23147C141.453 8.47851 141.47 8.75324 141.398 9.00978C141.278 9.40978 141.238 9.79311 141.278 10.1598C141.283 10.211 141.304 10.2598 141.338 10.2988C141.373 10.3379 141.418 10.3651 141.467 10.3764C141.517 10.3876 141.568 10.3824 141.613 10.3613C141.659 10.3403 141.695 10.3047 141.718 10.2598C142.678 8.54978 141.998 6.53978 139.878 6.88978C139.131 7.00978 138.665 6.74978 138.478 6.10978C138.434 5.9571 138.435 5.79668 138.481 5.64193C138.528 5.48718 138.619 5.34259 138.746 5.22024C138.873 5.09788 139.033 5.00131 139.213 4.93861C139.392 4.8759 139.586 4.84887 139.778 4.85978C143.528 5.04978 144.648 7.16978 147.038 8.93978C147.161 9.03144 147.243 9.16816 147.265 9.31999C147.288 9.47181 147.249 9.62636 147.158 9.74978Z" fill="white"/>
<path d="M122.263 8.94044C124.653 7.16044 125.773 5.03044 129.533 4.83044C129.727 4.81963 129.922 4.84673 130.103 4.90948C130.284 4.97224 130.445 5.06881 130.573 5.19116C130.701 5.3135 130.793 5.45806 130.84 5.61276C130.887 5.76746 130.888 5.92781 130.843 6.08044C130.656 6.72044 130.186 6.98044 129.433 6.86044C127.313 6.52044 126.633 8.54044 127.603 10.2504C127.626 10.2954 127.662 10.3311 127.708 10.3521C127.753 10.3732 127.804 10.3785 127.854 10.3672C127.903 10.3559 127.949 10.3287 127.983 10.2896C128.017 10.2505 128.038 10.2017 128.043 10.1504C128.083 9.78377 128.043 9.3971 127.923 8.99044C127.851 8.73385 127.868 8.45904 127.971 8.21194C128.075 7.96484 128.258 7.7604 128.491 7.6328C128.724 7.5052 128.992 7.46216 129.251 7.51087C129.51 7.55958 129.744 7.6971 129.913 7.90044C130.973 9.16044 131 10.3604 129.993 11.5004C127.913 13.8604 123.753 11.8104 122.153 9.76044C122.106 9.69963 122.071 9.63002 122.051 9.55566C122.031 9.48131 122.026 9.4037 122.036 9.32737C122.046 9.25104 122.072 9.17751 122.111 9.11108C122.15 9.04465 122.202 8.98664 122.263 8.94044Z" fill="white"/>
<path d="M70.6764 9.68018C69.1064 11.7602 64.9764 13.8902 62.8564 11.5702C61.8298 10.4436 61.8331 9.24018 62.8664 7.96018C63.0299 7.74509 63.263 7.59558 63.5254 7.53759C63.7877 7.4796 64.0627 7.51679 64.3027 7.64271C64.5426 7.76862 64.7324 7.97532 64.839 8.22694C64.9457 8.47855 64.9624 8.75919 64.8864 9.02017C64.7731 9.42684 64.7398 9.81352 64.7864 10.1802C64.7942 10.2284 64.8164 10.273 64.8501 10.3083C64.8839 10.3435 64.9275 10.3676 64.9753 10.3774C65.0231 10.3871 65.0727 10.3821 65.1176 10.363C65.1625 10.3438 65.2004 10.3115 65.2264 10.2702C66.1664 8.54017 65.4464 6.53018 63.3364 6.91018C62.5831 7.04352 62.1064 6.79352 61.9064 6.16018C61.8572 6.0078 61.8543 5.84649 61.8978 5.68989C61.9414 5.5333 62.0302 5.38602 62.1567 5.26048C62.2832 5.13495 62.4437 5.03486 62.6247 4.96867C62.8057 4.90247 63.0018 4.87212 63.1964 4.88017C66.9664 5.01017 68.1264 7.13018 70.5464 8.87018C70.6082 8.91482 70.6605 8.97119 70.7004 9.03606C70.7404 9.10093 70.7672 9.17303 70.7792 9.24825C70.7913 9.32347 70.7884 9.40032 70.7708 9.47443C70.7532 9.54854 70.7211 9.61847 70.6764 9.68018Z" fill="white"/>
<path d="M45.5926 9.76026C45.5466 9.69766 45.5133 9.62677 45.4944 9.55163C45.4755 9.4765 45.4716 9.3986 45.4827 9.32242C45.4939 9.24624 45.5199 9.17326 45.5594 9.10768C45.5988 9.0421 45.6509 8.9852 45.7126 8.94026C48.1126 7.16026 49.2526 5.03026 53.0226 4.84026C53.2171 4.82926 53.4136 4.85664 53.5955 4.92006C53.7775 4.98348 53.9395 5.0811 54.068 5.20466C54.1964 5.32822 54.2875 5.4741 54.3336 5.62998C54.3797 5.78585 54.3793 5.94716 54.3326 6.10026C54.1459 6.74692 53.6726 7.00692 52.9126 6.88026C50.7926 6.53026 50.1026 8.56025 51.0626 10.2803C51.0876 10.3259 51.1267 10.3621 51.174 10.3836C51.2214 10.4051 51.2744 10.4106 51.3252 10.3993C51.3759 10.388 51.4216 10.3606 51.4554 10.3211C51.4892 10.2816 51.5093 10.2322 51.5126 10.1803C51.5526 9.81359 51.5126 9.42359 51.3926 9.01026C51.3232 8.75459 51.3423 8.48233 51.4468 8.23822C51.5513 7.99411 51.735 7.79268 51.9677 7.66703C52.2004 7.54138 52.4682 7.49899 52.7272 7.54683C52.9861 7.59466 53.2208 7.72988 53.3926 7.93026C54.4526 9.19692 54.4759 10.4003 53.4626 11.5403C51.3626 13.9003 47.1926 11.8303 45.5926 9.76026Z" fill="white"/>
<path d="M96.617 9.25C96.597 9.25 96.577 9.24667 96.557 9.24C96.5093 9.23374 96.4657 9.22623 96.4344 9.21887C96.4031 9.21151 96.3863 9.2048 96.387 9.2C94.1403 5.62667 91.187 2.78 87.527 0.66C87.4877 0.635839 87.4553 0.602014 87.4328 0.56175C87.4102 0.521487 87.3984 0.476128 87.3984 0.43C87.3984 0.383872 87.4102 0.338514 87.4328 0.29825C87.4553 0.257987 87.4877 0.22416 87.527 0.199999L87.807 0.039999C87.8157 0.0335079 87.8262 0.0299988 87.837 0.0299988C87.8478 0.0299988 87.8584 0.0335079 87.867 0.039999C91.3337 2.02667 94.1637 4.63667 96.357 7.87C96.3719 7.89205 96.395 7.91078 96.4246 7.92467C96.4541 7.93857 96.4892 7.94725 96.527 7.95C96.567 7.95 96.597 7.95 96.617 7.95C96.637 7.95 96.667 7.95 96.707 7.95C96.7448 7.9472 96.7799 7.9385 96.8094 7.9246C96.8389 7.91071 96.8621 7.892 96.877 7.87C99.057 4.63 101.877 2.01 105.337 0.0100002C105.346 0.00350912 105.356 0 105.367 0C105.378 0 105.388 0.00350912 105.397 0.0100002L105.677 0.17C105.716 0.194161 105.749 0.227986 105.771 0.26825C105.794 0.308513 105.806 0.353872 105.806 0.4C105.806 0.446128 105.794 0.491486 105.771 0.53175C105.749 0.572013 105.716 0.605838 105.677 0.629999C102.03 2.76333 99.0903 5.62 96.857 9.2C96.8563 9.20487 96.8388 9.21158 96.8077 9.21891C96.7765 9.22624 96.7337 9.23371 96.687 9.24C96.667 9.24667 96.6437 9.25 96.617 9.25Z" fill="white"/>
<path d="M10.2937 0.0703125H10.8337C13.9737 2.07698 16.7203 4.58365 19.0737 7.59031C19.1108 7.637 19.158 7.67481 19.2116 7.70083C19.2651 7.72685 19.3236 7.74038 19.3826 7.74038C19.4415 7.74038 19.4993 7.72685 19.5515 7.70083C19.6037 7.67481 19.6489 7.637 19.6837 7.59031C21.9903 4.57698 24.727 2.07031 27.8937 0.0703125C28.1537 0.0703125 28.4103 0.0703125 28.6637 0.0703125C24.8703 2.73698 21.847 5.77365 19.5937 9.18031C19.5657 9.22423 19.527 9.26006 19.481 9.28452C19.4351 9.30897 19.3833 9.32127 19.3305 9.32027C19.2778 9.31928 19.2257 9.30502 19.179 9.27882C19.1324 9.25262 19.0927 9.21531 19.0637 9.17031C16.8503 5.61031 13.9103 2.73698 10.2437 0.550312C10.2279 0.541032 10.2144 0.529088 10.2041 0.515287C10.1937 0.501486 10.1867 0.486149 10.1837 0.470312C10.137 0.350312 10.1737 0.216979 10.2937 0.0703125Z" fill="white"/>
</g>
<defs>
<clipPath id="clip0_282_106">
<rect width="148" height="27" fill="white"/>
</clipPath>
</defs>
</svg>
