<svg width="148" height="27" viewBox="0 0 148 27" fill="none" xmlns="http://www.w3.org/2000/svg">
<g clip-path="url(#clip0_282_105)">
<path d="M31.5668 17.8495C31.3868 17.8495 31.2735 17.8229 31.2268 17.7695C30.3735 16.6095 29.3568 15.6995 28.1768 15.0395C24.9068 13.2195 23.2968 10.0795 25.8868 7.03953C28.3935 4.07953 30.2001 1.76953 31.3068 0.109532C31.3233 0.0840572 31.3413 0.0630713 31.359 0.0489371C31.3767 0.0348029 31.3932 0.0280819 31.4068 0.0295312C31.4268 0.0228647 31.4535 0.0195312 31.4868 0.0195312C31.5135 0.0195312 31.5368 0.0228647 31.5568 0.0295312C31.5704 0.0282287 31.5869 0.035021 31.6046 0.0491488C31.6223 0.0632766 31.6403 0.084183 31.6568 0.109532C32.7701 1.76286 34.5868 4.06286 37.1068 7.00953C39.7068 10.0395 38.1168 13.1895 34.8568 15.0295C33.6768 15.6895 32.6601 16.5995 31.8068 17.7595C31.7668 17.8195 31.6868 17.8495 31.5668 17.8495ZM31.6568 16.9295C31.8235 16.9295 31.9235 16.9029 31.9568 16.8495C32.7101 15.8162 33.6068 15.0029 34.6468 14.4095C37.5368 12.7595 38.9268 9.94953 36.6068 7.27953C34.3535 4.67953 32.7268 2.6462 31.7268 1.17953C31.7127 1.15853 31.697 1.14102 31.6812 1.12874C31.6655 1.11646 31.6501 1.10984 31.6368 1.10953C31.6168 1.10286 31.5901 1.09953 31.5568 1.09953C31.5368 1.09953 31.5168 1.10286 31.4968 1.10953C31.4828 1.11142 31.4671 1.11983 31.4513 1.13389C31.4355 1.14794 31.4202 1.16715 31.4068 1.18953C30.4335 2.66953 28.8435 4.7262 26.6368 7.35953C24.3668 10.0795 25.8068 12.8595 28.7168 14.4595C29.7701 15.0329 30.6801 15.8329 31.4468 16.8595C31.4868 16.9129 31.5568 16.9362 31.6568 16.9295Z" fill="white"/>
<path d="M69.6468 0.00976562C69.6668 0.00976562 69.6901 0.0130989 69.7168 0.0197656C69.7304 0.0183897 69.7469 0.0251464 69.7646 0.0392773C69.7823 0.0534083 69.8003 0.0743545 69.8168 0.0997658C70.9301 1.75977 72.7468 4.06644 75.2668 7.01977C77.8668 10.0598 76.2668 13.2098 72.9968 15.0498C71.8168 15.7098 70.8001 16.6231 69.9468 17.7898C69.9001 17.8431 69.8201 17.8698 69.7068 17.8698C69.5201 17.8698 69.4068 17.8431 69.3668 17.7898C68.5068 16.6231 67.4868 15.7131 66.3068 15.0598C63.0368 13.2198 61.4268 10.0698 64.0268 7.02977C66.5401 4.06977 68.3535 1.75977 69.4668 0.0997658C69.4813 0.0772872 69.4971 0.0582321 69.5128 0.0442807C69.5285 0.0303292 69.5436 0.02191 69.5568 0.0197656C69.5835 0.0130989 69.6135 0.00976562 69.6468 0.00976562ZM69.7168 16.6098C69.8501 16.6098 69.9335 16.5931 69.9668 16.5598C72.8368 13.7698 78.6268 12.0998 74.2568 6.87977C73.0101 5.38644 71.5668 3.65977 69.9268 1.69977C69.8468 1.60644 69.7401 1.55977 69.6068 1.55977C69.4935 1.55977 69.3968 1.60977 69.3168 1.70977C67.6968 3.67644 66.2701 5.4131 65.0368 6.91977C60.7168 12.1798 66.5168 13.7998 69.4168 16.5598C69.4501 16.5998 69.5501 16.6165 69.7168 16.6098Z" fill="white"/>
<path d="M108.701 17.86C108.514 17.86 108.401 17.83 108.361 17.77C107.508 16.61 106.494 15.6967 105.321 15.03C102.051 13.18 100.461 10.03 103.071 6.99C105.598 4.04333 107.421 1.74333 108.541 0.09C108.557 0.0647144 108.575 0.0438474 108.593 0.0297228C108.611 0.0155982 108.627 0.0087705 108.641 0.01C108.668 0.00333335 108.694 0 108.721 0C108.748 0 108.774 0.00333335 108.801 0.01C108.814 0.012086 108.829 0.0204773 108.845 0.0344312C108.861 0.0483851 108.876 0.0674712 108.891 0.09C109.998 1.75667 111.804 4.07333 114.311 7.04C116.901 10.09 115.281 13.23 112.001 15.06C110.821 15.7133 109.801 16.62 108.941 17.78C108.894 17.8333 108.814 17.86 108.701 17.86ZM108.671 16.61C108.838 16.61 108.938 16.59 108.971 16.55C111.861 13.78 117.661 12.14 113.321 6.89C112.081 5.39 110.648 3.65667 109.021 1.69C108.941 1.59667 108.844 1.54667 108.731 1.54C108.591 1.54 108.481 1.59 108.401 1.69C106.774 3.65667 105.338 5.38667 104.091 6.88C99.7407 12.12 105.541 13.77 108.421 16.55C108.454 16.5833 108.538 16.6033 108.671 16.61Z" fill="white"/>
<path d="M50.696 4.01953C50.7426 4.01953 50.7826 4.02286 50.816 4.02953C50.8441 4.04119 50.8746 4.06316 50.9055 4.09409C50.9365 4.12503 50.9672 4.16429 50.996 4.20953C55.776 11.6295 62.526 16.7795 70.396 20.7595C70.4347 20.7791 70.4681 20.8077 70.4936 20.843C70.519 20.8784 70.5358 20.9195 70.5426 20.9631C70.5494 21.0068 70.546 21.0517 70.5327 21.0945C70.5194 21.1373 70.4965 21.1766 70.466 21.2095L70.266 21.4095C70.247 21.4296 70.2218 21.4425 70.1945 21.4461C70.1672 21.4498 70.1394 21.4439 70.116 21.4295C62.846 17.6195 55.696 12.6795 51.046 5.70953C50.9726 5.58953 50.856 5.52953 50.696 5.52953C50.536 5.52953 50.4193 5.58953 50.346 5.70953C45.696 12.6795 38.536 17.6095 31.266 21.4195C31.2425 21.4339 31.2147 21.4398 31.1874 21.4361C31.1601 21.4325 31.1349 21.4196 31.116 21.3995L30.916 21.1995C30.8854 21.1666 30.8625 21.1273 30.8492 21.0845C30.8359 21.0417 30.8326 20.9968 30.8393 20.9531C30.8461 20.9095 30.8629 20.8684 30.8884 20.833C30.9138 20.7977 30.9472 20.7691 30.986 20.7495C38.866 16.7695 45.616 11.6295 50.396 4.20953C50.4247 4.16429 50.4554 4.12503 50.4864 4.09409C50.5173 4.06316 50.5478 4.04119 50.576 4.02953C50.616 4.02286 50.656 4.01953 50.696 4.01953Z" fill="white"/>
<path d="M107.872 21.6805C107.84 21.6949 107.804 21.6968 107.771 21.6857C107.737 21.6745 107.709 21.6513 107.692 21.6205L107.422 21.1605C107.418 21.1546 107.415 21.1475 107.414 21.14C107.413 21.1325 107.414 21.1246 107.417 21.1169C107.42 21.1092 107.425 21.102 107.431 21.0957C107.437 21.0894 107.444 21.0842 107.452 21.0805C114.966 17.1538 120.629 13.0105 124.442 8.65051C124.742 8.30384 125.732 6.85717 127.412 4.31051C127.455 4.24722 127.512 4.19398 127.577 4.15444C127.642 4.1149 127.716 4.09 127.792 4.08145C127.868 4.0729 127.945 4.0809 128.017 4.1049C128.09 4.12891 128.157 4.16834 128.212 4.22051C128.592 4.57051 128.832 5.52051 129.282 6.10051C133.849 11.9538 139.522 16.5938 146.302 20.0205C146.669 20.2072 146.979 20.5038 147.232 20.9105C147.255 20.9468 147.266 20.9895 147.263 21.0323C147.26 21.0751 147.243 21.1158 147.215 21.1483C147.187 21.1808 147.149 21.2035 147.107 21.2129C147.066 21.2223 147.022 21.2179 146.982 21.2005C139.096 17.3205 132.772 12.1238 128.012 5.61051C127.973 5.5568 127.921 5.51385 127.86 5.48555C127.8 5.45725 127.733 5.44451 127.667 5.44849C127.6 5.45246 127.535 5.47303 127.479 5.50831C127.422 5.54359 127.375 5.59248 127.342 5.65051C123.612 12.4305 114.762 18.3205 107.872 21.6805Z" fill="white"/>
<path d="M15.7335 11.0396C15.9069 10.9396 16.0969 10.703 16.3035 10.3296C16.363 10.2186 16.4548 10.1284 16.5667 10.0708C16.6787 10.0133 16.8055 9.9911 16.9304 10.0074C17.0552 10.0237 17.1721 10.0776 17.2656 10.162C17.359 10.2463 17.4246 10.3571 17.4535 10.4796C18.0335 12.8596 17.4169 14.4863 15.6035 15.3596C15.4587 15.4274 15.2943 15.4394 15.1425 15.3931C14.9907 15.3468 14.8627 15.2457 14.7835 15.1096L13.1835 12.3296C13.1584 12.2855 13.1234 12.2478 13.0813 12.2194C13.0393 12.191 12.9912 12.1728 12.9409 12.166C12.8906 12.1592 12.8394 12.1641 12.7913 12.1804C12.7432 12.1966 12.6995 12.2237 12.6635 12.2596L9.72355 15.1896C9.64941 15.2633 9.55167 15.308 9.4486 15.3154C9.34554 15.3227 9.2442 15.2923 9.16355 15.2296C7.53688 13.9363 7.12021 12.1296 7.91355 9.80958C7.93891 9.73685 7.98579 9.67354 8.04796 9.62805C8.11012 9.58256 8.18465 9.55704 8.26165 9.55488C8.33866 9.55271 8.4145 9.57398 8.47913 9.6159C8.54376 9.65782 8.59413 9.7184 8.62355 9.78959C8.88355 10.4496 9.25021 10.9396 9.72355 11.2596C9.77272 11.2933 9.83132 11.3103 9.89086 11.3083C9.95039 11.3064 10.0077 11.2855 10.0546 11.2487C10.1014 11.2119 10.1353 11.1611 10.1513 11.1037C10.1673 11.0463 10.1646 10.9854 10.1435 10.9296C8.98355 7.54958 11.1535 7.75958 12.0535 5.58958C12.0776 5.53374 12.114 5.48411 12.1601 5.44445C12.2062 5.4048 12.2607 5.37616 12.3195 5.36074C12.3783 5.34531 12.4399 5.3435 12.4995 5.35543C12.5591 5.36736 12.6152 5.39272 12.6635 5.42958C14.7169 6.96292 15.5535 8.69625 15.1735 10.6296C15.1616 10.7019 15.1699 10.7764 15.1975 10.8444C15.225 10.9124 15.2706 10.9713 15.3292 11.0141C15.3877 11.057 15.4567 11.0821 15.5282 11.0866C15.5998 11.0911 15.671 11.0748 15.7335 11.0396Z" fill="white"/>
<path d="M89.0807 5.18945C89.1473 5.18945 89.214 5.20945 89.2807 5.24945C90.1407 5.75612 90.8673 6.63278 91.4607 7.87945C91.9073 8.81945 91.9807 9.77945 91.6807 10.7594C91.6604 10.82 91.6615 10.8857 91.6838 10.9456C91.706 11.0055 91.7481 11.0559 91.8029 11.0886C91.8578 11.1213 91.9222 11.1343 91.9855 11.1253C92.0487 11.1164 92.107 11.0861 92.1507 11.0394L93.2807 9.90945C93.3186 9.87265 93.3648 9.8455 93.4155 9.8303C93.4661 9.81509 93.5196 9.81227 93.5716 9.82207C93.6235 9.83187 93.6723 9.85401 93.714 9.88662C93.7556 9.91923 93.7887 9.96135 93.8107 10.0094C94.4973 11.6028 94.2773 13.2028 93.1507 14.8094C93.0463 14.9549 92.9095 15.074 92.7511 15.1571C92.5927 15.2403 92.4174 15.2851 92.2392 15.2881C92.061 15.291 91.885 15.2519 91.7254 15.1739C91.5658 15.096 91.4272 14.9814 91.3207 14.8394L89.3107 12.1794C89.2786 12.1472 89.2327 12.1261 89.1807 12.1194C89.154 12.1194 89.1307 12.1194 89.1107 12.1194C89.084 12.1194 89.0573 12.1194 89.0307 12.1194C88.9786 12.1262 88.9328 12.1473 88.9007 12.1794L86.9207 14.8594C86.8149 15.002 86.6769 15.1173 86.5178 15.196C86.3586 15.2748 86.1829 15.3149 86.0047 15.3129C85.8265 15.311 85.6509 15.2671 85.4921 15.1848C85.3333 15.1026 85.1958 14.9843 85.0907 14.8394C83.9507 13.2461 83.7173 11.6494 84.3907 10.0494C84.413 10.0031 84.4459 9.96266 84.4867 9.93129C84.5275 9.89993 84.575 9.87854 84.6255 9.86882C84.6761 9.85911 84.7281 9.86134 84.7776 9.87534C84.8272 9.88934 84.8727 9.91472 84.9107 9.94945L86.0507 11.0694C86.0943 11.1193 86.1542 11.152 86.2196 11.1619C86.2851 11.1717 86.352 11.158 86.4083 11.1233C86.4647 11.0885 86.5069 11.0349 86.5275 10.9719C86.548 10.909 86.5456 10.8408 86.5207 10.7794C86.214 9.80612 86.2807 8.84612 86.7207 7.89945C87.3007 6.64612 88.0173 5.76278 88.8707 5.24945C88.9373 5.20945 89.0073 5.18945 89.0807 5.18945Z" fill="white"/>
<path d="M12.6453 13.4902C12.672 13.4902 12.702 13.4902 12.7353 13.4902C12.7794 13.499 12.8182 13.51 12.8479 13.5223C12.8777 13.5345 12.8974 13.5476 12.9053 13.5602C15.2153 16.2002 17.7653 18.8902 14.7953 22.1202C14.6939 22.231 14.5664 22.3147 14.4244 22.3636C14.2824 22.4125 14.1304 22.4251 13.9823 22.4003C13.8342 22.3754 13.6947 22.3139 13.5764 22.2213C13.4582 22.1287 13.365 22.008 13.3053 21.8702C13.0386 21.2702 12.8153 20.9702 12.6353 20.9702C12.4286 20.9702 12.192 21.2702 11.9253 21.8702C11.8646 22.0073 11.7706 22.1271 11.6519 22.2186C11.5332 22.3102 11.3935 22.3707 11.2454 22.3945C11.0974 22.4183 10.9458 22.4048 10.8043 22.3552C10.6628 22.3055 10.536 22.2213 10.4353 22.1102C7.4653 18.8802 10.0253 16.1902 12.3453 13.5602C12.353 13.5476 12.3727 13.5345 12.4024 13.5222C12.4322 13.51 12.4711 13.4989 12.5153 13.4902C12.5486 13.4902 12.592 13.4902 12.6453 13.4902Z" fill="white"/>
<path d="M89.1532 20.9607C88.9399 20.954 88.6966 21.2507 88.4232 21.8507C88.3615 21.9871 88.2668 22.1059 88.1476 22.1965C88.0284 22.287 87.8885 22.3464 87.7405 22.3692C87.5926 22.392 87.4413 22.3776 87.3003 22.3272C87.1594 22.2769 87.0332 22.1921 86.9332 22.0807C84.0032 18.8107 86.5832 16.1507 88.9332 13.5407C88.9457 13.5292 88.9676 13.5179 88.9971 13.5075C89.0265 13.497 89.0629 13.4879 89.1032 13.4807C89.1366 13.474 89.1799 13.4707 89.2332 13.4707C89.2599 13.4707 89.2899 13.474 89.3232 13.4807C89.3664 13.4896 89.4046 13.5008 89.4343 13.513C89.464 13.5252 89.4843 13.5382 89.4932 13.5507C91.7732 16.2107 94.3032 18.9307 91.2932 22.1307C91.191 22.2389 91.0634 22.3201 90.9221 22.367C90.7807 22.4138 90.6299 22.4249 90.4832 22.3991C90.3366 22.3733 90.1986 22.3116 90.0816 22.2193C89.9647 22.1271 89.8725 22.0073 89.8132 21.8707C89.5532 21.264 89.3332 20.9607 89.1532 20.9607Z" fill="white"/>
<path d="M0.113616 16.9695C1.70362 14.9195 5.85362 12.8595 7.93362 15.1995C8.94028 16.3329 8.91695 17.5329 7.86362 18.7995C7.69414 19.0028 7.46049 19.1402 7.2017 19.1888C6.94291 19.2375 6.67465 19.1944 6.44172 19.0668C6.2088 18.9392 6.02531 18.7349 5.92191 18.4878C5.81852 18.2408 5.80147 17.9661 5.87362 17.7095C5.99362 17.3095 6.03362 16.9262 5.99362 16.5595C5.98854 16.5083 5.96733 16.4595 5.93315 16.4204C5.89898 16.3814 5.85369 16.3542 5.8041 16.3429C5.7545 16.3316 5.70327 16.3369 5.65811 16.3579C5.61294 16.379 5.57627 16.4146 5.55362 16.4595C4.59362 18.1695 5.27362 20.1795 7.39362 19.8295C8.14028 19.7095 8.60695 19.9695 8.79362 20.6095C8.83801 20.7622 8.83685 20.9226 8.79023 21.0774C8.74361 21.2321 8.65288 21.3767 8.52563 21.4991C8.39838 21.6214 8.2383 21.718 8.05877 21.7807C7.87923 21.8434 7.68545 21.8704 7.49362 21.8595C3.74362 21.6695 2.62362 19.5495 0.233616 17.7795C0.110511 17.6879 0.0287569 17.5511 0.00626433 17.3993C-0.0162282 17.2475 0.0223747 17.0929 0.113616 16.9695Z" fill="white"/>
<path d="M25.0034 17.7794C22.6134 19.5594 21.4934 21.6894 17.7334 21.8894C17.54 21.9002 17.3447 21.8731 17.1637 21.8104C16.9828 21.7476 16.8215 21.6511 16.6933 21.5287C16.5651 21.4064 16.4737 21.2618 16.4267 21.1071C16.3798 20.9524 16.3786 20.7921 16.4234 20.6394C16.61 19.9994 17.08 19.7394 17.8334 19.8594C19.9534 20.1994 20.6334 18.1794 19.6634 16.4694C19.6407 16.4245 19.6041 16.3888 19.5589 16.3677C19.5137 16.3467 19.4625 16.3414 19.4129 16.3527C19.3633 16.3639 19.318 16.3912 19.2838 16.4303C19.2496 16.4694 19.2284 16.5182 19.2234 16.5694C19.1834 16.9361 19.2234 17.3228 19.3434 17.7294C19.4156 17.986 19.3986 18.2608 19.2953 18.5079C19.1919 18.755 19.0084 18.9595 18.7754 19.0871C18.5425 19.2147 18.2742 19.2577 18.0153 19.209C17.7565 19.1603 17.5228 19.0228 17.3534 18.8194C16.2934 17.5594 16.2667 16.3594 17.2734 15.2194C19.3534 12.8594 23.5134 14.9094 25.1134 16.9594C25.1606 17.0202 25.1953 17.0899 25.2154 17.1642C25.2355 17.2386 25.2405 17.3162 25.2303 17.3925C25.2201 17.4688 25.1947 17.5424 25.1558 17.6088C25.1168 17.6752 25.065 17.7332 25.0034 17.7794Z" fill="white"/>
<path d="M76.5945 17.0394C78.1645 14.9594 82.2945 12.8294 84.4145 15.1494C85.4412 16.2761 85.4378 17.4794 84.4045 18.7594C84.241 18.9745 84.0079 19.1241 83.7456 19.182C83.4832 19.24 83.2082 19.2028 82.9683 19.0769C82.7283 18.951 82.5385 18.7443 82.4319 18.4927C82.3253 18.2411 82.3085 17.9604 82.3845 17.6994C82.4978 17.2928 82.5312 16.9061 82.4845 16.5394C82.4768 16.4913 82.4546 16.4466 82.4208 16.4114C82.3871 16.3762 82.3434 16.3521 82.2956 16.3423C82.2478 16.3325 82.1982 16.3375 82.1533 16.3567C82.1085 16.3758 82.0705 16.4082 82.0445 16.4494C81.1045 18.1794 81.8245 20.1894 83.9345 19.8094C84.6878 19.6761 85.1645 19.9261 85.3645 20.5594C85.4137 20.7118 85.4166 20.8731 85.3731 21.0297C85.3295 21.1863 85.2407 21.3336 85.1142 21.4591C84.9877 21.5847 84.8272 21.6848 84.6462 21.751C84.4653 21.8171 84.2692 21.8475 84.0745 21.8394C80.3045 21.7094 79.1445 19.5894 76.7245 17.8494C76.6628 17.8048 76.6104 17.7484 76.5705 17.6836C76.5305 17.6187 76.5038 17.5466 76.4917 17.4714C76.4796 17.3962 76.4825 17.3193 76.5001 17.2452C76.5178 17.1711 76.5498 17.1012 76.5945 17.0394Z" fill="white"/>
<path d="M101.674 16.9608C101.72 17.0234 101.753 17.0943 101.772 17.1694C101.791 17.2445 101.795 17.3224 101.784 17.3986C101.772 17.4748 101.746 17.5478 101.707 17.6133C101.668 17.6789 101.615 17.7358 101.554 17.7808C99.1537 19.5608 98.0137 21.6908 94.2437 21.8808C94.0493 21.8918 93.8528 21.8644 93.6708 21.801C93.4889 21.7375 93.3268 21.6399 93.1984 21.5164C93.0699 21.3928 92.9788 21.2469 92.9327 21.091C92.8867 20.9352 92.887 20.7739 92.9337 20.6208C93.1204 19.9741 93.5937 19.7141 94.3537 19.8408C96.4737 20.1908 97.1637 18.1608 96.2037 16.4408C96.1788 16.3952 96.1396 16.3589 96.0923 16.3375C96.0449 16.316 95.9919 16.3105 95.9412 16.3218C95.8904 16.3331 95.8447 16.3605 95.8109 16.4C95.7771 16.4395 95.757 16.4889 95.7537 16.5408C95.7137 16.9074 95.7537 17.2974 95.8737 17.7108C95.9431 17.9664 95.924 18.2387 95.8195 18.4828C95.715 18.7269 95.5313 18.9283 95.2986 19.054C95.0659 19.1796 94.7981 19.222 94.5391 19.1742C94.2802 19.1264 94.0455 18.9911 93.8737 18.7908C92.8137 17.5241 92.7904 16.3208 93.8037 15.1808C95.9037 12.8208 100.074 14.8908 101.674 16.9608Z" fill="white"/>
<path d="M50.6495 17.4707C50.6695 17.4707 50.6895 17.474 50.7095 17.4807C50.7573 17.4869 50.8008 17.4944 50.8321 17.5018C50.8634 17.5092 50.8803 17.5159 50.8795 17.5207C53.1262 21.094 56.0795 23.9407 59.7395 26.0607C59.7788 26.0848 59.8113 26.1187 59.8338 26.1589C59.8563 26.1992 59.8681 26.2445 59.8681 26.2907C59.8681 26.3368 59.8563 26.3822 59.8338 26.4224C59.8113 26.4627 59.7788 26.4965 59.7395 26.5207L59.4595 26.6807C59.4509 26.6872 59.4403 26.6907 59.4295 26.6907C59.4187 26.6907 59.4082 26.6872 59.3995 26.6807C55.9329 24.694 53.1029 22.084 50.9095 18.8507C50.8947 18.8286 50.8715 18.8099 50.842 18.796C50.8124 18.7821 50.7773 18.7734 50.7395 18.7707C50.6995 18.7707 50.6695 18.7707 50.6495 18.7707C50.6295 18.7707 50.5995 18.7707 50.5595 18.7707C50.5217 18.7735 50.4867 18.7822 50.4572 18.7961C50.4276 18.81 50.4045 18.8287 50.3895 18.8507C48.2095 22.0907 45.3895 24.7107 41.9295 26.7107C41.9209 26.7172 41.9103 26.7207 41.8995 26.7207C41.8887 26.7207 41.8782 26.7172 41.8695 26.7107L41.5895 26.5507C41.5502 26.5265 41.5178 26.4927 41.4953 26.4524C41.4728 26.4122 41.4609 26.3668 41.4609 26.3207C41.4609 26.2745 41.4728 26.2292 41.4953 26.1889C41.5178 26.1487 41.5502 26.1148 41.5895 26.0907C45.2362 23.9573 48.1762 21.1007 50.4095 17.5207C50.4102 17.5158 50.4277 17.5091 50.4589 17.5018C50.49 17.4944 50.5328 17.487 50.5795 17.4807C50.5995 17.474 50.6229 17.4707 50.6495 17.4707Z" fill="white"/>
<path d="M136.972 26.6503H136.432C133.292 24.6436 130.546 22.137 128.192 19.1303C128.155 19.0836 128.108 19.0458 128.055 19.0198C128.001 18.9938 127.943 18.9802 127.884 18.9802C127.825 18.9802 127.767 18.9938 127.715 19.0198C127.662 19.0458 127.617 19.0836 127.582 19.1303C125.276 22.1436 122.539 24.6503 119.372 26.6503C119.112 26.6503 118.856 26.6503 118.602 26.6503C122.396 23.9836 125.419 20.947 127.672 17.5403C127.7 17.4964 127.739 17.4606 127.785 17.4361C127.831 17.4117 127.883 17.3994 127.936 17.4004C127.988 17.4014 128.04 17.4156 128.087 17.4418C128.134 17.468 128.173 17.5053 128.202 17.5503C130.416 21.1103 133.356 23.9837 137.022 26.1703C137.038 26.1796 137.052 26.1915 137.062 26.2053C137.072 26.2191 137.079 26.2345 137.082 26.2503C137.129 26.3703 137.092 26.5036 136.972 26.6503Z" fill="white"/>
</g>
<defs>
<clipPath id="clip0_282_105">
<rect width="148" height="27" fill="white"/>
</clipPath>
</defs>
</svg>
