<svg width="148" height="27" viewBox="0 0 148 27" fill="none" xmlns="http://www.w3.org/2000/svg">
<path d="M31.5668 17.85C31.3868 17.85 31.2735 17.8234 31.2268 17.77C30.3735 16.61 29.3568 15.7 28.1768 15.04C24.9068 13.22 23.2968 10.08 25.8868 7.04002C28.3935 4.08002 30.2001 1.77002 31.3068 0.11002C31.3233 0.0845455 31.3413 0.0635595 31.359 0.0494253C31.3767 0.0352911 31.3932 0.0285702 31.4068 0.0300195C31.4268 0.0233529 31.4535 0.0200195 31.4868 0.0200195C31.5135 0.0200195 31.5368 0.0233529 31.5568 0.0300195C31.5704 0.028717 31.5869 0.0355092 31.6046 0.049637C31.6223 0.0637648 31.6403 0.0846713 31.6568 0.11002C32.7701 1.76335 34.5868 4.06335 37.1068 7.01002C39.7068 10.04 38.1168 13.19 34.8568 15.03C33.6768 15.69 32.6601 16.6 31.8068 17.76C31.7668 17.82 31.6868 17.85 31.5668 17.85ZM31.6568 16.93C31.8235 16.93 31.9235 16.9034 31.9568 16.85C32.7101 15.8167 33.6068 15.0034 34.6468 14.41C37.5368 12.76 38.9268 9.95002 36.6068 7.28002C34.3535 4.68002 32.7268 2.64669 31.7268 1.18002C31.7127 1.15902 31.697 1.14151 31.6812 1.12923C31.6655 1.11695 31.6501 1.11033 31.6368 1.11002C31.6168 1.10335 31.5901 1.10002 31.5568 1.10002C31.5368 1.10002 31.5168 1.10335 31.4968 1.11002C31.4828 1.11191 31.4671 1.12032 31.4513 1.13438C31.4355 1.14843 31.4202 1.16764 31.4068 1.19002C30.4335 2.67002 28.8435 4.72669 26.6368 7.36002C24.3668 10.08 25.8068 12.86 28.7168 14.46C29.7701 15.0334 30.6801 15.8334 31.4468 16.86C31.4868 16.9134 31.5568 16.9367 31.6568 16.93Z" fill="#997B6C"/>
<path d="M69.6468 0.0100098C69.6668 0.0100098 69.6901 0.0133431 69.7168 0.0200098C69.7304 0.0186339 69.7469 0.0253906 69.7646 0.0395215C69.7823 0.0536525 69.8003 0.0745987 69.8168 0.10001C70.9301 1.76001 72.7468 4.06668 75.2668 7.02001C77.8668 10.06 76.2668 13.21 72.9968 15.05C71.8168 15.71 70.8001 16.6233 69.9468 17.79C69.9001 17.8433 69.8201 17.87 69.7068 17.87C69.5201 17.87 69.4068 17.8433 69.3668 17.79C68.5068 16.6233 67.4868 15.7133 66.3068 15.06C63.0368 13.22 61.4268 10.07 64.0268 7.03001C66.5401 4.07001 68.3535 1.76001 69.4668 0.10001C69.4813 0.0775314 69.4971 0.0584763 69.5128 0.0445249C69.5285 0.0305734 69.5436 0.0221542 69.5568 0.0200098C69.5835 0.0133431 69.6135 0.0100098 69.6468 0.0100098ZM69.7168 16.61C69.8501 16.61 69.9335 16.5933 69.9668 16.56C72.8368 13.77 78.6268 12.1 74.2568 6.88001C73.0101 5.38668 71.5668 3.66001 69.9268 1.70001C69.8468 1.60668 69.7401 1.56001 69.6068 1.56001C69.4935 1.56001 69.3968 1.61001 69.3168 1.71001C67.6968 3.67668 66.2701 5.41334 65.0368 6.92001C60.7168 12.18 66.5168 13.8 69.4168 16.56C69.4501 16.6 69.5501 16.6167 69.7168 16.61Z" fill="#997B6C"/>
<path d="M108.697 17.86C108.51 17.86 108.397 17.83 108.357 17.77C107.504 16.61 106.49 15.6967 105.317 15.03C102.047 13.18 100.457 10.03 103.067 6.99C105.594 4.04333 107.417 1.74333 108.537 0.09C108.553 0.0647144 108.571 0.0438474 108.589 0.0297228C108.607 0.0155982 108.623 0.0087705 108.637 0.01C108.664 0.00333335 108.69 0 108.717 0C108.744 0 108.77 0.00333335 108.797 0.01C108.81 0.012086 108.825 0.0204773 108.841 0.0344312C108.857 0.0483851 108.872 0.0674712 108.887 0.09C109.994 1.75667 111.8 4.07333 114.307 7.04C116.897 10.09 115.277 13.23 111.997 15.06C110.817 15.7133 109.797 16.62 108.937 17.78C108.89 17.8333 108.81 17.86 108.697 17.86ZM108.667 16.61C108.834 16.61 108.934 16.59 108.967 16.55C111.857 13.78 117.657 12.14 113.317 6.89C112.077 5.39 110.644 3.65667 109.017 1.69C108.937 1.59667 108.84 1.54667 108.727 1.54C108.587 1.54 108.477 1.59 108.397 1.69C106.77 3.65667 105.334 5.38667 104.087 6.88C99.7369 12.12 105.537 13.77 108.417 16.55C108.45 16.5833 108.534 16.6033 108.667 16.61Z" fill="#997B6C"/>
<path d="M50.696 4.02002C50.7426 4.02002 50.7826 4.02335 50.816 4.03002C50.8441 4.04168 50.8746 4.06365 50.9055 4.09458C50.9365 4.12552 50.9672 4.16478 50.996 4.21002C55.776 11.63 62.526 16.78 70.396 20.76C70.4347 20.7796 70.4681 20.8082 70.4936 20.8435C70.519 20.8789 70.5358 20.92 70.5426 20.9636C70.5494 21.0073 70.546 21.0522 70.5327 21.095C70.5194 21.1378 70.4965 21.1771 70.466 21.21L70.266 21.41C70.247 21.4301 70.2218 21.443 70.1945 21.4466C70.1672 21.4503 70.1394 21.4444 70.116 21.43C62.846 17.62 55.696 12.68 51.046 5.71002C50.9726 5.59002 50.856 5.53002 50.696 5.53002C50.536 5.53002 50.4193 5.59002 50.346 5.71002C45.696 12.68 38.536 17.61 31.266 21.42C31.2425 21.4344 31.2147 21.4403 31.1874 21.4366C31.1601 21.433 31.1349 21.4201 31.116 21.4L30.916 21.2C30.8854 21.1671 30.8625 21.1278 30.8492 21.085C30.8359 21.0422 30.8326 20.9973 30.8393 20.9536C30.8461 20.91 30.8629 20.8689 30.8884 20.8335C30.9138 20.7982 30.9472 20.7696 30.986 20.75C38.866 16.77 45.616 11.63 50.396 4.21002C50.4247 4.16478 50.4554 4.12552 50.4864 4.09458C50.5173 4.06365 50.5478 4.04168 50.576 4.03002C50.616 4.02335 50.656 4.02002 50.696 4.02002Z" fill="#997B6C"/>
<path d="M107.876 21.68C107.844 21.6944 107.808 21.6963 107.775 21.6852C107.741 21.674 107.713 21.6508 107.696 21.62L107.426 21.16C107.422 21.1541 107.419 21.147 107.418 21.1395C107.417 21.132 107.418 21.1241 107.421 21.1164C107.424 21.1087 107.429 21.1015 107.435 21.0952C107.441 21.0889 107.448 21.0837 107.456 21.08C114.97 17.1533 120.633 13.01 124.446 8.65002C124.746 8.30335 125.736 6.85668 127.416 4.31002C127.459 4.24673 127.516 4.19349 127.581 4.15395C127.646 4.11441 127.72 4.08951 127.796 4.08096C127.872 4.07241 127.949 4.08041 128.021 4.10441C128.094 4.12842 128.161 4.16785 128.216 4.22002C128.596 4.57002 128.836 5.52002 129.286 6.10002C133.853 11.9533 139.526 16.5933 146.306 20.02C146.673 20.2067 146.983 20.5033 147.236 20.91C147.259 20.9463 147.27 20.989 147.267 21.0318C147.264 21.0746 147.247 21.1153 147.219 21.1478C147.191 21.1803 147.153 21.203 147.111 21.2124C147.07 21.2218 147.026 21.2174 146.986 21.2C139.1 17.32 132.776 12.1233 128.016 5.61002C127.977 5.55631 127.925 5.51336 127.864 5.48506C127.804 5.45676 127.737 5.44402 127.671 5.448C127.604 5.45197 127.539 5.47254 127.483 5.50782C127.426 5.5431 127.379 5.59199 127.346 5.65002C123.616 12.43 114.766 18.32 107.876 21.68Z" fill="#997B6C"/>
<path d="M15.7335 11.0398C15.9069 10.9398 16.0969 10.7032 16.3035 10.3298C16.363 10.2188 16.4548 10.1286 16.5667 10.071C16.6787 10.0135 16.8055 9.99135 16.9304 10.0076C17.0552 10.0239 17.1721 10.0778 17.2656 10.1622C17.359 10.2465 17.4246 10.3573 17.4535 10.4798C18.0335 12.8598 17.4169 14.4865 15.6035 15.3598C15.4587 15.4276 15.2943 15.4396 15.1425 15.3933C14.9907 15.347 14.8627 15.2459 14.7835 15.1098L13.1835 12.3298C13.1584 12.2857 13.1234 12.248 13.0813 12.2196C13.0393 12.1912 12.9912 12.173 12.9409 12.1662C12.8906 12.1594 12.8394 12.1643 12.7913 12.1806C12.7432 12.1968 12.6995 12.2239 12.6635 12.2598L9.72355 15.1898C9.64941 15.2635 9.55167 15.3082 9.4486 15.3156C9.34554 15.3229 9.2442 15.2925 9.16355 15.2298C7.53688 13.9365 7.12021 12.1298 7.91355 9.80983C7.93891 9.7371 7.98579 9.67379 8.04796 9.6283C8.11012 9.58281 8.18465 9.55728 8.26165 9.55512C8.33866 9.55295 8.4145 9.57423 8.47913 9.61615C8.54376 9.65807 8.59413 9.71864 8.62355 9.78983C8.88355 10.4498 9.25021 10.9398 9.72355 11.2598C9.77272 11.2935 9.83132 11.3105 9.89086 11.3085C9.95039 11.3066 10.0077 11.2857 10.0546 11.2489C10.1014 11.2121 10.1353 11.1613 10.1513 11.1039C10.1673 11.0465 10.1646 10.9856 10.1435 10.9298C8.98355 7.54983 11.1535 7.75983 12.0535 5.58983C12.0776 5.53399 12.114 5.48435 12.1601 5.44469C12.2062 5.40504 12.2607 5.37641 12.3195 5.36099C12.3783 5.34556 12.4399 5.34375 12.4995 5.35568C12.5591 5.36761 12.6152 5.39297 12.6635 5.42983C14.7169 6.96317 15.5535 8.6965 15.1735 10.6298C15.1616 10.7021 15.1699 10.7766 15.1975 10.8446C15.225 10.9126 15.2706 10.9715 15.3292 11.0143C15.3877 11.0572 15.4567 11.0823 15.5282 11.0868C15.5998 11.0913 15.671 11.075 15.7335 11.0398Z" fill="#997B6C"/>
<path d="M89.0768 5.18994C89.1434 5.18994 89.2101 5.20994 89.2768 5.24994C90.1368 5.75661 90.8634 6.63327 91.4568 7.87994C91.9034 8.81994 91.9768 9.77994 91.6768 10.7599C91.6565 10.8205 91.6576 10.8862 91.6799 10.9461C91.7021 11.006 91.7442 11.0564 91.799 11.0891C91.8539 11.1218 91.9183 11.1348 91.9816 11.1258C92.0448 11.1169 92.1031 11.0866 92.1468 11.0399L93.2768 9.90994C93.3147 9.87314 93.3609 9.84599 93.4116 9.83079C93.4622 9.81558 93.5157 9.81276 93.5677 9.82256C93.6196 9.83236 93.6684 9.8545 93.7101 9.88711C93.7517 9.91972 93.7848 9.96184 93.8068 10.0099C94.4934 11.6033 94.2734 13.2033 93.1468 14.8099C93.0424 14.9554 92.9056 15.0745 92.7472 15.1576C92.5888 15.2408 92.4135 15.2856 92.2353 15.2886C92.0571 15.2915 91.8811 15.2524 91.7215 15.1744C91.5619 15.0965 91.4233 14.9819 91.3168 14.8399L89.3068 12.1799C89.2747 12.1477 89.2288 12.1266 89.1768 12.1199C89.1501 12.1199 89.1268 12.1199 89.1068 12.1199C89.0801 12.1199 89.0534 12.1199 89.0268 12.1199C88.9747 12.1267 88.9289 12.1478 88.8968 12.1799L86.9168 14.8599C86.811 15.0025 86.673 15.1178 86.5139 15.1965C86.3547 15.2753 86.179 15.3154 86.0008 15.3134C85.8226 15.3115 85.647 15.2676 85.4882 15.1853C85.3294 15.1031 85.1919 14.9848 85.0868 14.8399C83.9468 13.2466 83.7134 11.6499 84.3868 10.0499C84.4091 10.0036 84.442 9.96315 84.4828 9.93178C84.5236 9.90042 84.5711 9.87903 84.6216 9.86931C84.6722 9.8596 84.7242 9.86183 84.7737 9.87583C84.8233 9.88983 84.8688 9.91521 84.9068 9.94994L86.0468 11.0699C86.0904 11.1198 86.1503 11.1525 86.2157 11.1624C86.2812 11.1722 86.3481 11.1585 86.4044 11.1238C86.4608 11.089 86.503 11.0354 86.5236 10.9724C86.5441 10.9095 86.5417 10.8413 86.5168 10.7799C86.2101 9.80661 86.2768 8.84661 86.7168 7.89994C87.2968 6.64661 88.0134 5.76327 88.8668 5.24994C88.9334 5.20994 89.0034 5.18994 89.0768 5.18994Z" fill="#997B6C"/>
<path d="M12.6453 13.49C12.672 13.49 12.702 13.49 12.7353 13.49C12.7794 13.4988 12.8182 13.5098 12.8479 13.5221C12.8777 13.5343 12.8974 13.5474 12.9053 13.56C15.2153 16.2 17.7653 18.89 14.7953 22.12C14.6939 22.2308 14.5664 22.3145 14.4244 22.3634C14.2824 22.4123 14.1304 22.4249 13.9823 22.4001C13.8342 22.3752 13.6947 22.3137 13.5764 22.2211C13.4582 22.1285 13.365 22.0078 13.3053 21.87C13.0386 21.27 12.8153 20.97 12.6353 20.97C12.4286 20.97 12.192 21.27 11.9253 21.87C11.8646 22.0071 11.7706 22.1269 11.6519 22.2184C11.5332 22.31 11.3935 22.3705 11.2454 22.3943C11.0974 22.4181 10.9458 22.4046 10.8043 22.355C10.6628 22.3053 10.536 22.2211 10.4353 22.11C7.4653 18.88 10.0253 16.19 12.3453 13.56C12.353 13.5474 12.3727 13.5343 12.4024 13.522C12.4322 13.5098 12.4711 13.4987 12.5153 13.49C12.5486 13.49 12.592 13.49 12.6453 13.49Z" fill="#997B6C"/>
<path d="M89.1571 20.96C88.9438 20.9533 88.7005 21.25 88.4271 21.85C88.3654 21.9864 88.2707 22.1052 88.1515 22.1958C88.0323 22.2863 87.8924 22.3457 87.7444 22.3685C87.5965 22.3913 87.4452 22.3769 87.3042 22.3265C87.1633 22.2762 87.0371 22.1914 86.9371 22.08C84.0071 18.81 86.5871 16.15 88.9371 13.54C88.9496 13.5285 88.9715 13.5172 89.001 13.5068C89.0304 13.4963 89.0668 13.4872 89.1071 13.48C89.1405 13.4733 89.1838 13.47 89.2371 13.47C89.2638 13.47 89.2938 13.4733 89.3271 13.48C89.3703 13.4889 89.4085 13.5001 89.4382 13.5123C89.4679 13.5245 89.4882 13.5375 89.4971 13.55C91.7771 16.21 94.3071 18.93 91.2971 22.13C91.1949 22.2382 91.0673 22.3194 90.926 22.3663C90.7846 22.4131 90.6338 22.4242 90.4871 22.3984C90.3405 22.3726 90.2025 22.3109 90.0855 22.2186C89.9686 22.1264 89.8764 22.0066 89.8171 21.87C89.5571 21.2633 89.3371 20.96 89.1571 20.96Z" fill="#997B6C"/>
<path d="M0.113616 16.97C1.70362 14.92 5.85362 12.86 7.93362 15.2C8.94028 16.3334 8.91695 17.5334 7.86362 18.8C7.69414 19.0033 7.46049 19.1407 7.2017 19.1893C6.94291 19.238 6.67465 19.1949 6.44172 19.0673C6.2088 18.9397 6.02531 18.7354 5.92191 18.4883C5.81852 18.2413 5.80147 17.9666 5.87362 17.71C5.99362 17.31 6.03362 16.9267 5.99362 16.56C5.98854 16.5088 5.96733 16.46 5.93315 16.4209C5.89898 16.3819 5.85369 16.3547 5.8041 16.3434C5.7545 16.3321 5.70327 16.3374 5.65811 16.3584C5.61294 16.3795 5.57627 16.4151 5.55362 16.46C4.59362 18.17 5.27362 20.18 7.39362 19.83C8.14028 19.71 8.60695 19.97 8.79362 20.61C8.83801 20.7627 8.83685 20.9231 8.79023 21.0779C8.74361 21.2326 8.65288 21.3772 8.52563 21.4996C8.39838 21.6219 8.2383 21.7185 8.05877 21.7812C7.87923 21.8439 7.68545 21.8709 7.49362 21.86C3.74362 21.67 2.62362 19.55 0.233616 17.78C0.110511 17.6884 0.0287569 17.5516 0.00626435 17.3998C-0.0162282 17.248 0.0223747 17.0934 0.113616 16.97Z" fill="#997B6C"/>
<path d="M25.0034 17.7799C22.6134 19.5599 21.4934 21.6899 17.7334 21.8899C17.54 21.9007 17.3447 21.8736 17.1637 21.8109C16.9828 21.7481 16.8215 21.6516 16.6933 21.5292C16.5651 21.4069 16.4737 21.2623 16.4267 21.1076C16.3798 20.9529 16.3786 20.7926 16.4234 20.6399C16.61 19.9999 17.08 19.7399 17.8334 19.8599C19.9534 20.1999 20.6334 18.1799 19.6634 16.4699C19.6407 16.425 19.6041 16.3893 19.5589 16.3682C19.5137 16.3472 19.4625 16.3419 19.4129 16.3532C19.3633 16.3644 19.318 16.3917 19.2838 16.4308C19.2496 16.4699 19.2284 16.5187 19.2234 16.5699C19.1834 16.9366 19.2234 17.3233 19.3434 17.7299C19.4156 17.9865 19.3986 18.2613 19.2953 18.5084C19.1919 18.7555 19.0084 18.96 18.7754 19.0876C18.5425 19.2152 18.2742 19.2582 18.0153 19.2095C17.7565 19.1608 17.5228 19.0233 17.3534 18.8199C16.2934 17.5599 16.2667 16.3599 17.2734 15.2199C19.3534 12.8599 23.5134 14.9099 25.1134 16.9599C25.1606 17.0207 25.1953 17.0904 25.2154 17.1647C25.2355 17.2391 25.2405 17.3167 25.2303 17.393C25.2201 17.4693 25.1947 17.5429 25.1558 17.6093C25.1168 17.6757 25.065 17.7337 25.0034 17.7799Z" fill="#997B6C"/>
<path d="M76.5945 17.0398C78.1645 14.9598 82.2945 12.8298 84.4145 15.1498C85.4412 16.2765 85.4378 17.4798 84.4045 18.7598C84.241 18.9749 84.0079 19.1245 83.7456 19.1824C83.4832 19.2404 83.2082 19.2032 82.9683 19.0773C82.7283 18.9514 82.5385 18.7447 82.4319 18.4931C82.3253 18.2415 82.3085 17.9608 82.3845 17.6998C82.4978 17.2932 82.5312 16.9065 82.4845 16.5398C82.4768 16.4917 82.4546 16.447 82.4208 16.4118C82.3871 16.3766 82.3434 16.3525 82.2956 16.3427C82.2478 16.3329 82.1982 16.3379 82.1533 16.3571C82.1085 16.3762 82.0705 16.4086 82.0445 16.4498C81.1045 18.1798 81.8245 20.1898 83.9345 19.8098C84.6878 19.6765 85.1645 19.9265 85.3645 20.5598C85.4137 20.7122 85.4166 20.8735 85.3731 21.0301C85.3295 21.1867 85.2407 21.334 85.1142 21.4595C84.9877 21.5851 84.8272 21.6852 84.6462 21.7514C84.4653 21.8175 84.2692 21.8479 84.0745 21.8398C80.3045 21.7098 79.1445 19.5898 76.7245 17.8498C76.6628 17.8052 76.6104 17.7488 76.5705 17.684C76.5305 17.6191 76.5038 17.547 76.4917 17.4718C76.4796 17.3966 76.4825 17.3197 76.5001 17.2456C76.5178 17.1715 76.5498 17.1016 76.5945 17.0398Z" fill="#997B6C"/>
<path d="M101.674 16.9599C101.72 17.0225 101.753 17.0934 101.772 17.1685C101.791 17.2436 101.795 17.3215 101.784 17.3977C101.772 17.4739 101.746 17.5469 101.707 17.6124C101.668 17.678 101.615 17.7349 101.554 17.7799C99.1537 19.5599 98.0137 21.6899 94.2437 21.8799C94.0493 21.8909 93.8528 21.8635 93.6708 21.8001C93.4889 21.7366 93.3268 21.639 93.1984 21.5155C93.0699 21.3919 92.9788 21.246 92.9327 21.0901C92.8867 20.9343 92.887 20.773 92.9337 20.6199C93.1204 19.9732 93.5937 19.7132 94.3537 19.8399C96.4737 20.1899 97.1637 18.1599 96.2037 16.4399C96.1788 16.3943 96.1396 16.358 96.0923 16.3366C96.0449 16.3151 95.9919 16.3096 95.9412 16.3209C95.8904 16.3322 95.8447 16.3596 95.8109 16.3991C95.7771 16.4386 95.757 16.488 95.7537 16.5399C95.7137 16.9065 95.7537 17.2965 95.8737 17.7099C95.9431 17.9655 95.924 18.2378 95.8195 18.4819C95.715 18.726 95.5313 18.9274 95.2986 19.0531C95.0659 19.1787 94.7981 19.2211 94.5391 19.1733C94.2802 19.1255 94.0455 18.9902 93.8737 18.7899C92.8137 17.5232 92.7904 16.3199 93.8037 15.1799C95.9037 12.8199 100.074 14.8899 101.674 16.9599Z" fill="#997B6C"/>
<path d="M50.6534 17.47C50.6734 17.47 50.6934 17.4733 50.7134 17.48C50.7612 17.4862 50.8047 17.4937 50.836 17.5011C50.8673 17.5085 50.8842 17.5152 50.8834 17.52C53.1301 21.0933 56.0834 23.94 59.7434 26.06C59.7827 26.0841 59.8152 26.118 59.8377 26.1582C59.8602 26.1985 59.872 26.2438 59.872 26.29C59.872 26.3361 59.8602 26.3815 59.8377 26.4217C59.8152 26.462 59.7827 26.4958 59.7434 26.52L59.4634 26.68C59.4548 26.6865 59.4442 26.69 59.4334 26.69C59.4226 26.69 59.4121 26.6865 59.4034 26.68C55.9368 24.6933 53.1068 22.0833 50.9134 18.85C50.8986 18.8279 50.8754 18.8092 50.8459 18.7953C50.8163 18.7814 50.7812 18.7727 50.7434 18.77C50.7034 18.77 50.6734 18.77 50.6534 18.77C50.6334 18.77 50.6034 18.77 50.5634 18.77C50.5256 18.7728 50.4906 18.7815 50.4611 18.7954C50.4315 18.8093 50.4084 18.828 50.3934 18.85C48.2134 22.09 45.3934 24.71 41.9334 26.71C41.9248 26.7165 41.9142 26.72 41.9034 26.72C41.8926 26.72 41.8821 26.7165 41.8734 26.71L41.5934 26.55C41.5541 26.5258 41.5217 26.492 41.4992 26.4517C41.4767 26.4115 41.4648 26.3661 41.4648 26.32C41.4648 26.2738 41.4767 26.2285 41.4992 26.1882C41.5217 26.148 41.5541 26.1141 41.5934 26.09C45.2401 23.9566 48.1801 21.1 50.4134 17.52C50.4141 17.5151 50.4316 17.5084 50.4628 17.5011C50.4939 17.4937 50.5367 17.4863 50.5834 17.48C50.6034 17.4733 50.6268 17.47 50.6534 17.47Z" fill="#997B6C"/>
<path d="M136.975 26.6499H136.435C133.295 24.6432 130.549 22.1366 128.195 19.1299C128.158 19.0832 128.111 19.0454 128.058 19.0194C128.004 18.9934 127.946 18.9798 127.887 18.9798C127.828 18.9798 127.77 18.9934 127.718 19.0194C127.665 19.0454 127.62 19.0832 127.585 19.1299C125.279 22.1432 122.542 24.6499 119.375 26.6499C119.115 26.6499 118.859 26.6499 118.605 26.6499C122.399 23.9832 125.422 20.9466 127.675 17.5399C127.703 17.496 127.742 17.4602 127.788 17.4357C127.834 17.4113 127.886 17.399 127.939 17.4C127.991 17.401 128.043 17.4152 128.09 17.4414C128.137 17.4676 128.176 17.5049 128.205 17.5499C130.419 21.1099 133.359 23.9833 137.025 26.1699C137.041 26.1792 137.055 26.1911 137.065 26.2049C137.075 26.2187 137.082 26.2341 137.085 26.2499C137.132 26.3699 137.095 26.5032 136.975 26.6499Z" fill="#997B6C"/>
</svg>
