<svg width="148" height="27" viewBox="0 0 148 27" fill="none" xmlns="http://www.w3.org/2000/svg">
<path d="M115.703 8.86995C115.883 8.86995 115.996 8.89662 116.043 8.94995C116.896 10.11 117.913 11.02 119.093 11.68C122.363 13.5 123.973 16.64 121.383 19.68C118.876 22.64 117.069 24.95 115.963 26.61C115.946 26.6354 115.928 26.6564 115.911 26.6705C115.893 26.6847 115.876 26.6914 115.863 26.69C115.843 26.6966 115.816 26.7 115.783 26.7C115.756 26.7 115.733 26.6966 115.713 26.69C115.699 26.6913 115.683 26.6845 115.665 26.6703C115.647 26.6562 115.629 26.6353 115.613 26.61C114.499 24.9566 112.683 22.6566 110.163 19.71C107.563 16.68 109.153 13.53 112.413 11.69C113.593 11.03 114.609 10.12 115.463 8.95995C115.503 8.89995 115.583 8.86995 115.703 8.86995ZM115.613 9.78995C115.446 9.78995 115.346 9.81662 115.313 9.86995C114.559 10.9033 113.663 11.7166 112.623 12.31C109.733 13.96 108.343 16.77 110.663 19.44C112.916 22.04 114.543 24.0733 115.543 25.54C115.557 25.561 115.572 25.5785 115.588 25.5907C115.604 25.603 115.619 25.6096 115.633 25.61C115.653 25.6166 115.679 25.62 115.713 25.62C115.733 25.62 115.753 25.6166 115.773 25.61C115.787 25.6081 115.802 25.5997 115.818 25.5856C115.834 25.5715 115.849 25.5523 115.863 25.53C116.836 24.05 118.426 21.9933 120.633 19.36C122.903 16.64 121.463 13.86 118.553 12.26C117.499 11.6866 116.589 10.8866 115.823 9.85995C115.783 9.80662 115.713 9.78328 115.613 9.78995Z" fill="#997B6C"/>
<path d="M77.6227 26.71C77.6027 26.71 77.5794 26.7066 77.5527 26.7C77.5392 26.7013 77.5226 26.6946 77.5049 26.6804C77.4873 26.6663 77.4692 26.6454 77.4527 26.62C76.3394 24.96 74.5227 22.6533 72.0027 19.7C69.4027 16.66 71.0027 13.51 74.2727 11.67C75.4527 11.01 76.4694 10.0966 77.3227 8.92996C77.3694 8.87663 77.4494 8.84996 77.5627 8.84996C77.7494 8.84996 77.8627 8.87663 77.9027 8.92996C78.7627 10.0966 79.7827 11.0066 80.9627 11.66C84.2327 13.5 85.8427 16.65 83.2427 19.69C80.7294 22.65 78.9161 24.96 77.8027 26.62C77.7882 26.6424 77.7725 26.6615 77.7568 26.6754C77.7411 26.6894 77.7259 26.6978 77.7127 26.7C77.6861 26.7066 77.6561 26.71 77.6227 26.71ZM77.5527 10.11C77.4194 10.11 77.3361 10.1266 77.3027 10.16C74.4327 12.95 68.6427 14.62 73.0127 19.84C74.2594 21.3333 75.7027 23.06 77.3427 25.02C77.4227 25.1133 77.5294 25.16 77.6627 25.16C77.7761 25.16 77.8727 25.11 77.9527 25.01C79.5727 23.0433 80.9994 21.3066 82.2327 19.8C86.5527 14.54 80.7527 12.92 77.8527 10.16C77.8194 10.12 77.7194 10.1033 77.5527 10.11Z" fill="#997B6C"/>
<path d="M38.5727 8.85997C38.7593 8.85997 38.8727 8.88997 38.9127 8.94997C39.766 10.11 40.7793 11.0233 41.9527 11.69C45.2227 13.54 46.8127 16.69 44.2027 19.73C41.676 22.6766 39.8527 24.9766 38.7327 26.63C38.7162 26.6553 38.6981 26.6761 38.6805 26.6902C38.6628 26.7044 38.6463 26.7112 38.6327 26.71C38.606 26.7166 38.5793 26.72 38.5527 26.72C38.526 26.72 38.4993 26.7166 38.4727 26.71C38.4595 26.7079 38.4443 26.6995 38.4286 26.6855C38.4129 26.6716 38.3971 26.6525 38.3827 26.63C37.276 24.9633 35.4693 22.6466 32.9627 19.68C30.3727 16.63 31.9927 13.49 35.2727 11.66C36.4527 11.0066 37.4727 10.1 38.3327 8.93997C38.3793 8.88664 38.4593 8.85997 38.5727 8.85997ZM38.6027 10.11C38.436 10.11 38.336 10.13 38.3027 10.17C35.4127 12.94 29.6127 14.58 33.9527 19.83C35.1927 21.33 36.626 23.0633 38.2527 25.03C38.3327 25.1233 38.4293 25.1733 38.5427 25.18C38.6827 25.18 38.7927 25.13 38.8727 25.03C40.4993 23.0633 41.936 21.3333 43.1827 19.84C47.5327 14.6 41.7327 12.95 38.8527 10.17C38.8193 10.1366 38.736 10.1166 38.6027 10.11Z" fill="#997B6C"/>
<path d="M96.5736 22.7C96.5269 22.7 96.4869 22.6966 96.4536 22.69C96.4254 22.6783 96.3949 22.6563 96.364 22.6254C96.333 22.5945 96.3023 22.5552 96.2736 22.51C91.4936 15.09 84.7436 9.93995 76.8736 5.95995C76.8348 5.94036 76.8014 5.91176 76.776 5.87643C76.7505 5.8411 76.7337 5.79999 76.7269 5.75635C76.7202 5.71271 76.7235 5.66774 76.7368 5.62498C76.7501 5.58222 76.773 5.54284 76.8036 5.50995L77.0036 5.30995C77.0225 5.2899 77.0477 5.27697 77.075 5.27333C77.1023 5.26968 77.1301 5.27555 77.1536 5.28995C84.4236 9.09995 91.5736 14.04 96.2236 21.01C96.2969 21.13 96.4136 21.19 96.5736 21.19C96.7336 21.19 96.8502 21.13 96.9236 21.01C101.574 14.04 108.734 9.10995 116.004 5.29995C116.027 5.28555 116.055 5.27968 116.082 5.28333C116.109 5.28697 116.135 5.2999 116.154 5.31995L116.354 5.51995C116.384 5.55284 116.407 5.59222 116.42 5.63498C116.434 5.67774 116.437 5.72271 116.43 5.76635C116.423 5.80998 116.407 5.85109 116.381 5.88643C116.356 5.92176 116.322 5.95035 116.284 5.96995C108.404 9.94995 101.654 15.09 96.8736 22.51C96.8449 22.5552 96.8141 22.5945 96.7832 22.6254C96.7522 22.6563 96.7218 22.6783 96.6936 22.69C96.6536 22.6966 96.6136 22.7 96.5736 22.7Z" fill="#997B6C"/>
<path d="M39.3931 5.03996C39.4251 5.02553 39.4614 5.0237 39.4948 5.03481C39.5281 5.04593 39.5561 5.06918 39.5731 5.09996L39.8431 5.55996C39.8476 5.56592 39.8504 5.57293 39.8512 5.58047C39.8521 5.58802 39.8511 5.59591 39.8482 5.60358C39.8454 5.61124 39.8407 5.61848 39.8346 5.62478C39.8286 5.63107 39.8212 5.63626 39.8131 5.63996C32.2997 9.56662 26.6364 13.71 22.8231 18.07C22.5231 18.4166 21.5331 19.8633 19.8531 22.41C19.8101 22.4732 19.754 22.5265 19.6885 22.566C19.623 22.6056 19.5498 22.6305 19.4738 22.639C19.3978 22.6476 19.3208 22.6396 19.2482 22.6156C19.1756 22.5916 19.109 22.5521 19.0531 22.5C18.6731 22.15 18.4331 21.2 17.9831 20.62C13.4164 14.7666 7.74307 10.1266 0.963074 6.69995C0.596407 6.51329 0.286414 6.21662 0.0330811 5.80996C0.0100641 5.77371 -0.000684296 5.73101 0.00244141 5.68819C0.00556711 5.64536 0.0223939 5.60468 0.0504303 5.57216C0.0784667 5.53964 0.11623 5.517 0.158127 5.5076C0.200024 5.4982 0.243837 5.50253 0.283081 5.51996C8.16975 9.39996 14.4931 14.5966 19.2531 21.11C19.2926 21.1637 19.345 21.2066 19.4054 21.2349C19.4658 21.2632 19.5324 21.2759 19.5989 21.272C19.6655 21.268 19.7301 21.2474 19.7867 21.2121C19.8433 21.1769 19.8902 21.128 19.9231 21.07C23.6531 14.29 32.5031 8.39996 39.3931 5.03996Z" fill="#997B6C"/>
<path d="M131.536 15.6801C131.363 15.7801 131.173 16.0168 130.966 16.3901C130.907 16.5011 130.815 16.5914 130.703 16.649C130.591 16.7065 130.464 16.7286 130.339 16.7123C130.214 16.6961 130.097 16.6422 130.004 16.5578C129.911 16.4735 129.845 16.3627 129.816 16.2401C129.236 13.8601 129.853 12.2335 131.666 11.3601C131.811 11.2923 131.975 11.2804 132.127 11.3267C132.279 11.3729 132.407 11.4741 132.486 11.6101L134.086 14.3901C134.111 14.4342 134.146 14.472 134.188 14.5003C134.23 14.5287 134.278 14.547 134.329 14.5538C134.379 14.5606 134.43 14.5556 134.478 14.5394C134.526 14.5231 134.57 14.496 134.606 14.4601L137.546 11.5301C137.62 11.4565 137.718 11.4118 137.821 11.4044C137.924 11.397 138.025 11.4275 138.106 11.4901C139.733 12.7835 140.149 14.5901 139.356 16.9101C139.331 16.9829 139.284 17.0462 139.222 17.0917C139.159 17.1372 139.085 17.1627 139.008 17.1649C138.931 17.167 138.855 17.1457 138.79 17.1038C138.726 17.0619 138.675 17.0013 138.646 16.9301C138.386 16.2701 138.019 15.7801 137.546 15.4601C137.497 15.4265 137.438 15.4095 137.379 15.4114C137.319 15.4134 137.262 15.4343 137.215 15.4711C137.168 15.5079 137.134 15.5587 137.118 15.6161C137.102 15.6734 137.105 15.7344 137.126 15.7901C138.286 19.1701 136.116 18.9601 135.216 21.1301C135.192 21.186 135.156 21.2356 135.109 21.2753C135.063 21.3149 135.009 21.3436 134.95 21.359C134.891 21.3744 134.83 21.3762 134.77 21.3643C134.71 21.3524 134.654 21.327 134.606 21.2901C132.553 19.7568 131.716 18.0235 132.096 16.0901C132.108 16.0178 132.1 15.9434 132.072 15.8754C132.045 15.8073 131.999 15.7485 131.94 15.7057C131.882 15.6628 131.813 15.6377 131.741 15.6332C131.67 15.6286 131.599 15.6449 131.536 15.6801Z" fill="#997B6C"/>
<path d="M58.1928 21.53C58.1261 21.53 58.0594 21.51 57.9928 21.47C57.1328 20.9634 56.4061 20.0867 55.8128 18.84C55.3661 17.9 55.2928 16.94 55.5928 15.96C55.613 15.8994 55.6119 15.8338 55.5896 15.7739C55.5674 15.714 55.5254 15.6635 55.4705 15.6308C55.4156 15.5982 55.3512 15.5852 55.288 15.5942C55.2247 15.6031 55.1664 15.6334 55.1228 15.68L53.9928 16.81C53.9548 16.8468 53.9086 16.874 53.858 16.8892C53.8073 16.9044 53.7538 16.9072 53.7019 16.8974C53.6499 16.8876 53.6011 16.8655 53.5595 16.8329C53.5179 16.8003 53.4847 16.7581 53.4628 16.71C52.7761 15.1167 52.9961 13.5167 54.1228 11.91C54.2271 11.7646 54.364 11.6455 54.5223 11.5623C54.6807 11.4792 54.8561 11.4343 55.0343 11.4314C55.2125 11.4285 55.3885 11.4676 55.5481 11.5455C55.7076 11.6235 55.8463 11.7381 55.9528 11.88L57.9628 14.54C57.9948 14.5722 58.0407 14.5934 58.0928 14.6C58.1194 14.6 58.1428 14.6 58.1628 14.6C58.1894 14.6 58.2161 14.6 58.2428 14.6C58.2948 14.5933 58.3406 14.5722 58.3728 14.54L60.3528 11.86C60.4585 11.7175 60.5965 11.6022 60.7557 11.5234C60.9148 11.4446 61.0906 11.4046 61.2688 11.4065C61.447 11.4085 61.6226 11.4524 61.7813 11.5346C61.9401 11.6169 62.0777 11.7352 62.1828 11.88C63.3228 13.4734 63.5561 15.07 62.8828 16.67C62.8604 16.7164 62.8275 16.7568 62.7868 16.7882C62.746 16.8196 62.6984 16.8409 62.6479 16.8507C62.5974 16.8604 62.5453 16.8581 62.4958 16.8441C62.4463 16.8301 62.4007 16.8048 62.3628 16.77L61.2228 15.65C61.1792 15.6002 61.1193 15.5675 61.0538 15.5576C60.9883 15.5478 60.9215 15.5614 60.8651 15.5962C60.8087 15.631 60.7665 15.6846 60.746 15.7475C60.7254 15.8105 60.7278 15.8787 60.7528 15.94C61.0594 16.9134 60.9928 17.8734 60.5528 18.82C59.9728 20.0734 59.2561 20.9567 58.4028 21.47C58.3361 21.51 58.2661 21.53 58.1928 21.53Z" fill="#997B6C"/>
<path d="M134.624 13.23C134.598 13.23 134.568 13.23 134.534 13.23C134.49 13.2212 134.451 13.2102 134.422 13.1979C134.392 13.1856 134.372 13.1726 134.364 13.16C132.054 10.52 129.504 7.82998 132.474 4.59998C132.576 4.48917 132.703 4.40548 132.845 4.35656C132.987 4.30764 133.139 4.29503 133.287 4.31988C133.435 4.34473 133.575 4.40625 133.693 4.49884C133.811 4.59143 133.905 4.71215 133.964 4.84998C134.231 5.44998 134.454 5.74998 134.634 5.74998C134.841 5.74998 135.078 5.44998 135.344 4.84998C135.405 4.71287 135.499 4.59309 135.618 4.50153C135.736 4.40997 135.876 4.34952 136.024 4.32568C136.172 4.30183 136.324 4.31535 136.465 4.365C136.607 4.41465 136.734 4.49886 136.834 4.60998C139.804 7.83998 137.244 10.53 134.924 13.16C134.917 13.1726 134.897 13.1857 134.867 13.1979C134.837 13.2102 134.798 13.2212 134.754 13.23C134.721 13.23 134.678 13.23 134.624 13.23Z" fill="#997B6C"/>
<path d="M58.1124 5.76C58.3257 5.76667 58.5691 5.47 58.8424 4.87C58.9041 4.73361 58.9988 4.61476 59.118 4.52422C59.2372 4.43367 59.3772 4.3743 59.5251 4.35146C59.673 4.32862 59.8243 4.34305 59.9653 4.39343C60.1063 4.44381 60.2324 4.52856 60.3324 4.64C63.2624 7.91 60.6824 10.57 58.3324 13.18C58.3199 13.1914 58.2981 13.2028 58.2686 13.2132C58.2391 13.2236 58.2027 13.2328 58.1624 13.24C58.1291 13.2467 58.0857 13.25 58.0324 13.25C58.0057 13.25 57.9757 13.2467 57.9424 13.24C57.8992 13.231 57.861 13.2199 57.8313 13.2077C57.8016 13.1955 57.7813 13.1825 57.7724 13.17C55.4924 10.51 52.9624 7.79 55.9724 4.59C56.0747 4.48174 56.2022 4.40054 56.3436 4.35369C56.4849 4.30685 56.6357 4.29581 56.7824 4.32158C56.9291 4.34735 57.0671 4.40911 57.184 4.50134C57.3009 4.59356 57.3931 4.71336 57.4524 4.85C57.7124 5.45667 57.9324 5.76 58.1124 5.76Z" fill="#997B6C"/>
<path d="M147.156 9.74995C145.566 11.8 141.416 13.8599 139.336 11.5199C138.329 10.3866 138.353 9.18662 139.406 7.91995C139.575 7.71672 139.809 7.5793 140.068 7.53065C140.327 7.482 140.595 7.52506 140.828 7.65265C141.061 7.78023 141.244 7.98461 141.348 8.23164C141.451 8.47868 141.468 8.75341 141.396 9.00995C141.276 9.40995 141.236 9.79328 141.276 10.16C141.281 10.2112 141.302 10.26 141.336 10.299C141.371 10.3381 141.416 10.3653 141.465 10.3766C141.515 10.3878 141.566 10.3826 141.611 10.3615C141.657 10.3405 141.693 10.3049 141.716 10.26C142.676 8.54995 141.996 6.53995 139.876 6.88995C139.129 7.00995 138.663 6.74995 138.476 6.10995C138.432 5.95727 138.433 5.79685 138.479 5.6421C138.526 5.48735 138.617 5.34276 138.744 5.22041C138.871 5.09805 139.031 5.00148 139.211 4.93878C139.39 4.87607 139.584 4.84904 139.776 4.85995C143.526 5.04995 144.646 7.16995 147.036 8.93995C147.159 9.03161 147.241 9.16833 147.263 9.32016C147.286 9.47198 147.247 9.62653 147.156 9.74995Z" fill="#997B6C"/>
<path d="M122.266 8.94004C124.656 7.16004 125.776 5.03004 129.536 4.83004C129.73 4.81923 129.925 4.84633 130.106 4.90908C130.287 4.97184 130.448 5.06841 130.576 5.19076C130.704 5.3131 130.796 5.45766 130.843 5.61236C130.89 5.76706 130.891 5.92741 130.846 6.08004C130.659 6.72004 130.189 6.98004 129.436 6.86004C127.316 6.52004 126.636 8.54004 127.606 10.25C127.629 10.295 127.665 10.3307 127.711 10.3517C127.756 10.3728 127.807 10.3781 127.857 10.3668C127.906 10.3555 127.952 10.3283 127.986 10.2892C128.02 10.2501 128.041 10.2013 128.046 10.15C128.086 9.78337 128.046 9.3967 127.926 8.99004C127.854 8.73345 127.871 8.45864 127.974 8.21154C128.078 7.96444 128.261 7.76 128.494 7.6324C128.727 7.5048 128.995 7.46176 129.254 7.51047C129.513 7.55918 129.747 7.6967 129.916 7.90004C130.976 9.16004 131.003 10.36 129.996 11.5C127.916 13.86 123.756 11.81 122.156 9.76004C122.109 9.69923 122.074 9.62962 122.054 9.55526C122.034 9.48091 122.029 9.4033 122.039 9.32697C122.049 9.25064 122.075 9.17711 122.114 9.11068C122.153 9.04425 122.205 8.98624 122.266 8.94004Z" fill="#997B6C"/>
<path d="M70.675 9.68012C69.105 11.7601 64.975 13.8901 62.855 11.5701C61.8284 10.4435 61.8317 9.24012 62.865 7.96012C63.0285 7.74503 63.2616 7.59552 63.524 7.53753C63.7863 7.47954 64.0613 7.51673 64.3013 7.64265C64.5412 7.76856 64.731 7.97526 64.8376 8.22688C64.9443 8.47849 64.961 8.75914 64.885 9.02012C64.7717 9.42679 64.7384 9.81346 64.785 10.1801C64.7928 10.2283 64.815 10.2729 64.8487 10.3082C64.8825 10.3434 64.9261 10.3675 64.9739 10.3773C65.0217 10.387 65.0713 10.382 65.1162 10.3629C65.1611 10.3437 65.199 10.3114 65.225 10.2701C66.165 8.54012 65.445 6.53012 63.335 6.91012C62.5817 7.04346 62.105 6.79346 61.905 6.16012C61.8558 6.00774 61.8529 5.84644 61.8964 5.68984C61.94 5.53325 62.0288 5.38597 62.1553 5.26043C62.2818 5.1349 62.4423 5.03481 62.6233 4.96862C62.8043 4.90242 63.0004 4.87207 63.195 4.88012C66.965 5.01012 68.125 7.13012 70.545 8.87012C70.6068 8.91476 70.6591 8.97113 70.699 9.036C70.739 9.10087 70.7658 9.17297 70.7778 9.24819C70.7899 9.32341 70.787 9.40027 70.7694 9.47438C70.7518 9.54849 70.7197 9.61841 70.675 9.68012Z" fill="#997B6C"/>
<path d="M45.5958 9.76011C45.5498 9.69751 45.5165 9.62662 45.4976 9.55148C45.4787 9.47635 45.4748 9.39845 45.4859 9.32227C45.4971 9.24609 45.5231 9.17311 45.5626 9.10753C45.602 9.04195 45.6541 8.98505 45.7158 8.94011C48.1158 7.16011 49.2558 5.03011 53.0258 4.84011C53.2203 4.82911 53.4168 4.85649 53.5987 4.91991C53.7807 4.98333 53.9427 5.08095 54.0712 5.20451C54.1996 5.32807 54.2907 5.47395 54.3368 5.62983C54.3829 5.7857 54.3825 5.94701 54.3358 6.10011C54.1491 6.74677 53.6758 7.00677 52.9158 6.88011C50.7958 6.53011 50.1058 8.5601 51.0658 10.2801C51.0908 10.3257 51.1299 10.3619 51.1772 10.3834C51.2246 10.4049 51.2776 10.4104 51.3284 10.3991C51.3791 10.3878 51.4248 10.3604 51.4586 10.3209C51.4924 10.2814 51.5125 10.232 51.5158 10.1801C51.5558 9.81344 51.5158 9.42344 51.3958 9.01011C51.3264 8.75444 51.3455 8.48218 51.45 8.23807C51.5545 7.99396 51.7382 7.79253 51.9709 7.66688C52.2036 7.54123 52.4714 7.49884 52.7304 7.54668C52.9893 7.59451 53.224 7.72973 53.3958 7.93011C54.4558 9.19677 54.4791 10.4001 53.4658 11.5401C51.3658 13.9001 47.1958 11.8301 45.5958 9.76011Z" fill="#997B6C"/>
<path d="M96.6161 9.25C96.5961 9.25 96.5761 9.24667 96.5561 9.24C96.5084 9.23374 96.4648 9.22623 96.4335 9.21887C96.4022 9.21151 96.3854 9.2048 96.3861 9.2C94.1394 5.62667 91.1861 2.78 87.5261 0.66C87.4868 0.635839 87.4544 0.602014 87.4319 0.56175C87.4093 0.521487 87.3975 0.476128 87.3975 0.43C87.3975 0.383872 87.4093 0.338514 87.4319 0.29825C87.4544 0.257987 87.4868 0.22416 87.5261 0.199999L87.8061 0.039999C87.8148 0.0335079 87.8253 0.0299988 87.8361 0.0299988C87.8469 0.0299988 87.8575 0.0335079 87.8661 0.039999C91.3328 2.02667 94.1628 4.63667 96.3561 7.87C96.371 7.89205 96.3941 7.91078 96.4237 7.92467C96.4532 7.93857 96.4883 7.94725 96.5261 7.95C96.5661 7.95 96.5961 7.95 96.6161 7.95C96.6361 7.95 96.6661 7.95 96.7061 7.95C96.7439 7.9472 96.779 7.9385 96.8085 7.9246C96.838 7.91071 96.8612 7.892 96.8761 7.87C99.0561 4.63 101.876 2.01 105.336 0.0100002C105.345 0.00350912 105.355 0 105.366 0C105.377 0 105.387 0.00350912 105.396 0.0100002L105.676 0.17C105.715 0.194161 105.748 0.227986 105.77 0.26825C105.793 0.308513 105.805 0.353872 105.805 0.4C105.805 0.446128 105.793 0.491486 105.77 0.53175C105.748 0.572013 105.715 0.605838 105.676 0.629999C102.029 2.76333 99.0894 5.62 96.8561 9.2C96.8554 9.20487 96.8379 9.21158 96.8068 9.21891C96.7756 9.22624 96.7328 9.23371 96.6861 9.24C96.6661 9.24667 96.6428 9.25 96.6161 9.25Z" fill="#997B6C"/>
<path d="M10.2941 0.0700541H10.8341C13.9741 2.07672 16.7207 4.58339 19.0741 7.59005C19.1112 7.63674 19.1584 7.67455 19.212 7.70057C19.2655 7.72659 19.324 7.74012 19.383 7.74012C19.4419 7.74012 19.4997 7.72659 19.5519 7.70057C19.6041 7.67455 19.6493 7.63674 19.6841 7.59005C21.9907 4.57672 24.7274 2.07005 27.8941 0.0700541C28.1541 0.0700541 28.4107 0.0700541 28.6641 0.0700541C24.8707 2.73672 21.8474 5.77339 19.5941 9.18005C19.5661 9.22397 19.5274 9.2598 19.4814 9.28426C19.4355 9.30871 19.3837 9.32101 19.3309 9.32001C19.2782 9.31902 19.2261 9.30476 19.1794 9.27856C19.1328 9.25236 19.0931 9.21505 19.0641 9.17005C16.8507 5.61005 13.9107 2.73672 10.2441 0.550054C10.2283 0.540774 10.2148 0.52883 10.2045 0.515029C10.1941 0.501228 10.1871 0.485891 10.1841 0.470054C10.1374 0.350054 10.1741 0.216721 10.2941 0.0700541Z" fill="#997B6C"/>
</svg>
