<svg xmlns="http://www.w3.org/2000/svg" version="1.1" xmlns:xlink="http://www.w3.org/1999/xlink" width="512" height="512" x="0" y="0" viewBox="0 0 32 32" style="enable-background:new 0 0 512 512" xml:space="preserve" fill-rule="evenodd"><g><path d="M11.818 14.087a6 6 0 1 1 6.364 0 7.988 7.988 0 0 1 5.077 2.931c1.313-.41 2.721-.029 3.601.807 1.354 1.287 1.552 3.855.202 6.429-.847 1.711-2.977 3.451-4.777 4.591l-.535.339-.535-.339A20.347 20.347 0 0 1 18.733 27H5v-5a8 8 0 0 1 6.818-7.913zm9.047 5.979c-.719-1.366-2.128-1.474-2.847-.791-.37.351-.518.891-.518 1.506 0 .778.246 1.664.72 2.566l.007.012c.623 1.269 2.136 2.514 3.523 3.447 1.387-.933 2.9-2.178 3.53-3.459l.006-.013c.468-.889.714-1.775.714-2.553 0-.615-.148-1.155-.518-1.506-.718-.683-2.128-.575-2.847.791l-.885 1.681z" fill="#ffffff" opacity="1" data-original="#000000"></path></g></svg>