<svg width="800" height="800" viewBox="0 0 800 800" fill="none" xmlns="http://www.w3.org/2000/svg">
<g clip-path="url(#clip0_295_73)">
<path fill-rule="evenodd" clip-rule="evenodd" d="M622.167 478.236C596.48 474.965 571.264 468.701 547.034 459.569C537.381 456.014 526.921 455.253 516.856 457.376C506.79 459.499 497.528 464.418 490.134 471.569C470.2 491.736 438.9 496.403 415.967 479.703C379.767 453.331 347.905 421.47 321.534 385.269C304.834 362.336 309.467 331.036 329.667 311.103C344 296.069 348.634 274.236 341.667 254.669C331.697 229.948 324.682 204.136 320.767 177.769C318.285 165.222 311.517 153.928 301.623 145.822C291.729 137.716 279.324 133.302 266.534 133.336H186.967C171.8 133.336 157.3 139.603 146.967 150.669C136.9 161.803 132.067 176.669 133.634 191.569C142.231 274.336 170.42 353.864 215.867 423.569C257.084 488.319 312.009 543.233 376.767 584.436C446.592 629.367 525.875 657.514 608.4 666.669H612.834C626.367 666.769 639.4 661.669 649.3 652.436C654.785 647.418 659.16 641.31 662.145 634.501C665.13 627.693 666.659 620.336 666.634 612.903V533.336C667.144 520.326 662.919 507.572 654.742 497.44C646.565 487.308 634.991 480.485 622.167 478.236Z" stroke="#59637E" stroke-width="66.6667" stroke-linecap="round"/>
</g>
<defs>
<clipPath id="clip0_295_73">
<rect width="800" height="800" fill="white"/>
</clipPath>
</defs>
</svg>
